<?xml version="1.0" encoding="UTF-8"?>
<svg version="1.1" xmlns="http://www.w3.org/2000/svg" width="707" height="668">
<path d="M0 0 C233.31 0 466.62 0 707 0 C707 220.44 707 440.88 707 668 C473.69 668 240.38 668 0 668 C0 447.56 0 227.12 0 0 Z " fill="#FCFCFC" transform="translate(0,0)"/>
<path d="M0 0 C0.8759079 0.00054382 1.7518158 0.00108765 2.65426636 0.00164795 C14.99448593 0.03678485 26.79081657 0.52653328 38.77392578 3.73779297 C41.43982 4.44161493 44.11928698 5.05215887 46.80859375 5.66015625 C72.63293321 11.69265305 102.94082416 23.50435788 121.75 43 C126.30304475 46.99452977 132.50910134 45.69456522 138.1875 45.375 C142.77611199 44.87729253 147.31994939 44.17830452 151.875 43.4375 C169.19032426 40.63255623 186.3082198 40.2203905 203.8125 40.3125 C205.51301948 40.31753593 207.21354045 40.32209506 208.9140625 40.32617188 C213.00524621 40.33698676 217.09635574 40.35413009 221.1875 40.375 C220.89819336 42.77197266 220.89819336 42.77197266 220.1875 45.375 C214.17587868 48.31463406 207.6356866 49.56985596 201.125 51 C200.17044922 51.2165625 199.21589844 51.433125 198.23242188 51.65625 C193.23073954 52.7746386 188.27356584 53.74012354 183.1875 54.375 C186.33401901 57.57363526 189.5590912 60.66879951 192.83203125 63.73828125 C194.55518997 65.38749599 196.2778326 67.03725011 198 68.6875 C199.32547852 69.91243164 199.32547852 69.91243164 200.67773438 71.16210938 C206.87615043 77.16906856 206.87615043 77.16906856 207.77685547 80.65771484 C207.79296875 82.79296875 207.79296875 82.79296875 207.1875 86.375 C207.0225 87.365 206.8575 88.355 206.6875 89.375 C206.5225 90.035 206.3575 90.695 206.1875 91.375 C206.79464844 91.478125 207.40179687 91.58125 208.02734375 91.6875 C211.75228183 92.87301375 213.34974996 96.13443409 215.1875 99.375 C218.87563182 106.76589908 218.49849655 114.27757134 218.1875 122.375 C222.70563914 118.56360888 226.89876011 114.63225253 230.9375 110.3125 C235.9815905 105.19020655 241.46008765 101.89393978 248.1875 99.375 C249.1775 99.375 250.1675 99.375 251.1875 99.375 C251.08566406 98.80652344 250.98382812 98.23804688 250.87890625 97.65234375 C250.71730103 94.71896424 250.91876506 93.04963041 252.1875 90.375 C256.20878105 87.7236059 260.50870447 86.06364558 264.97363281 84.29589844 C268.78870704 82.70894873 272.44663487 80.81509837 276.125 78.9375 C277.48807486 78.25089219 278.85133758 77.56465714 280.21484375 76.87890625 C281.68630859 76.13447266 281.68630859 76.13447266 283.1875 75.375 C281.66259913 71.00227101 278.28152155 68.95405282 274.625 66.4375 C273.68696533 65.77935303 273.68696533 65.77935303 272.72998047 65.10791016 C268.05558987 61.86938845 263.27270072 58.93105327 258.1875 56.375 C258.1875 53.735 258.1875 51.095 258.1875 48.375 C260.43618014 47.61144402 261.746123 47.23571252 264.04345703 47.96069336 C264.67106934 48.29206299 265.29868164 48.62343262 265.9453125 48.96484375 C267.00032959 49.51712646 267.00032959 49.51712646 268.07666016 50.08056641 C268.8144873 50.48710449 269.55231445 50.89364258 270.3125 51.3125 C271.45211182 51.9300415 271.45211182 51.9300415 272.61474609 52.56005859 C278.67119383 55.92188394 284.05829208 59.70426877 289.1875 64.375 C289.91066406 64.99503906 290.63382813 65.61507812 291.37890625 66.25390625 C295.09647583 69.62227165 295.09647583 69.62227165 296.1875 71.375 C296.05701124 74.34827965 295.59306075 75.88472682 293.69140625 78.18359375 C289.91040235 81.35598535 286.18772296 84.02186925 281.875 86.4375 C277.67882703 88.87295108 275.71208006 90.61068731 274.1875 95.375 C273.73005999 97.27010861 273.27334205 99.1654032 272.82421875 101.0625 C268.26063885 117.63697423 257.97312625 130.37623785 246.1875 142.375 C245.32898438 143.2721875 244.47046875 144.169375 243.5859375 145.09375 C238.32493876 150.50506299 232.76320744 155.32787444 226.86279297 160.02490234 C224.92447142 161.58697145 223.01046767 163.17632883 221.09765625 164.76953125 C198.75263297 183.375 198.75263297 183.375 194.1875 183.375 C194.21070313 184.47714844 194.23390625 185.57929688 194.2578125 186.71484375 C194.95581898 233.88538678 177.60043111 279.37739441 145.48828125 313.88671875 C143.49097565 316.04679288 141.58206662 318.25047945 139.6875 320.5 C114.77778328 348.92706098 74.5451326 368.36157311 38.1875 376.375 C37.1046875 376.6227417 37.1046875 376.6227417 36 376.87548828 C-8.4414095 386.60711033 -57.23572921 376.40169503 -97.0625 355.8125 C-97.90748047 355.37784424 -98.75246094 354.94318848 -99.62304688 354.49536133 C-106.97943597 350.5647847 -113.51896775 345.88551885 -119.296875 339.84765625 C-119.84085938 339.28369141 -120.38484375 338.71972656 -120.9453125 338.13867188 C-122.02987371 336.99778683 -123.09248865 335.83565965 -124.1328125 334.65429688 C-127.80192696 330.94642416 -130.59127962 329.94314008 -135.8203125 329.7890625 C-142.71028375 330.12695127 -149.27639868 331.53335567 -155.95623779 333.19570923 C-159.35352891 334.03898803 -162.76295773 334.83027389 -166.171875 335.625 C-166.83831024 335.78128372 -167.50474548 335.93756744 -168.19137573 336.09858704 C-176.33596417 337.99104745 -184.52520575 339.30399701 -192.8125 340.375 C-193.5353418 340.47119629 -194.25818359 340.56739258 -195.00292969 340.66650391 C-211.73644729 342.86828254 -228.37834858 343.60558932 -245.2434082 343.67016602 C-247.31867305 343.68165302 -249.39390913 343.7020524 -251.46899414 343.73168945 C-274.07095796 344.05239905 -300.78544472 342.01127323 -320.8125 330.375 C-321.1425 329.715 -321.4725 329.055 -321.8125 328.375 C-323.56751036 327.65284871 -323.56751036 327.65284871 -325.625 327.0625 C-329.69462625 325.61937013 -331.26377543 323.91032763 -333.8125 320.375 C-334.94245458 319.4388299 -336.08997791 318.52364373 -337.25 317.625 C-344.73668352 311.39145235 -347.88401579 301.81458951 -348.8125 292.375 C-349.91346116 279.31457836 -346.27878472 266.16911448 -338.8125 255.375 C-338.1525 255.045 -337.4925 254.715 -336.8125 254.375 C-336.461875 253.446875 -336.11125 252.51875 -335.75 251.5625 C-333.32098381 245.4962523 -328.79071691 240.48470251 -324.8125 235.375 C-324.02359375 234.20517578 -324.02359375 234.20517578 -323.21875 233.01171875 C-322.7546875 232.47160156 -322.290625 231.93148437 -321.8125 231.375 C-320.8225 231.375 -319.8325 231.375 -318.8125 231.375 C-318.55726563 230.79363281 -318.30203125 230.21226562 -318.0390625 229.61328125 C-313.13653445 220.66694822 -302.22307272 212.92597799 -293.8125 207.375 C-293.1525 207.375 -292.4925 207.375 -291.8125 207.375 C-292.35911142 211.11153778 -293.70706341 212.44380151 -296.625 214.75 C-299.27452101 216.94058612 -301.3428025 218.8676971 -303.125 221.8125 C-303.681875 222.658125 -304.23875 223.50375 -304.8125 224.375 C-305.8025 224.375 -306.7925 224.375 -307.8125 224.375 C-307.90917969 225.10332031 -308.00585938 225.83164062 -308.10546875 226.58203125 C-308.91033743 229.76148489 -310.09606172 231.50351788 -312.125 234.0625 C-313.01638672 235.21298828 -313.01638672 235.21298828 -313.92578125 236.38671875 C-315.80086259 238.36273614 -317.31511185 239.34406935 -319.8125 240.375 C-319.75320313 241.25671875 -319.69390625 242.1384375 -319.6328125 243.046875 C-319.83540368 246.79921603 -320.71435561 248.47174533 -322.6875 251.625 C-328.57736941 261.93227146 -329.67083393 274.3040934 -326.625 285.8125 C-324.94503438 291.46150721 -321.43016916 295.67123882 -316.3515625 298.53515625 C-315.05588507 299.18748345 -313.7505861 299.82096479 -312.4375 300.4375 C-311.73125488 300.77620117 -311.02500977 301.11490234 -310.29736328 301.46386719 C-251.77104286 328.86583555 -175.54657631 312.07541253 -115.8125 297.375 C-113.43888532 296.80434116 -111.06518707 296.23402986 -108.69140625 295.6640625 C-20.77107798 274.32729252 66.28509714 239.57751006 144.47412109 193.93896484 C148.51840201 191.6078812 152.60917995 189.3626551 156.69555664 187.10644531 C182.81939712 172.65068962 207.09520291 156.5281613 229.1875 136.375 C230.9992036 134.74911215 232.81168948 133.12409551 234.625 131.5 C237.82002168 128.6444923 237.82002168 128.6444923 240.84765625 125.6171875 C242.1875 124.375 242.1875 124.375 244.1875 124.375 C244.435 123.83875 244.6825 123.3025 244.9375 122.75 C246.48446975 119.81075748 248.31764369 117.11745592 250.1875 114.375 C249.68605469 114.86226563 249.18460938 115.34953125 248.66796875 115.8515625 C231.59620692 131.84725076 211.22499807 144.30958282 191.83258057 157.27288818 C189.63731884 158.74359055 187.45013693 160.22617166 185.26171875 161.70703125 C173.70985092 169.44275424 161.47868532 175.90245163 149.1875 182.375 C148.21973633 182.88708008 147.25197266 183.39916016 146.25488281 183.92675781 C131.67832373 191.63384703 116.98078335 199.09305386 102.1875 206.375 C101.23907227 206.84292969 100.29064453 207.31085938 99.31347656 207.79296875 C86.16570232 214.25597103 72.84666848 220.16369634 59.3203125 225.7890625 C54.67507069 227.72758259 50.09353143 229.7718492 45.52612305 231.88598633 C38.50072687 235.13154906 31.99948052 237.68671978 24.1875 238.375 C24.1875 239.365 24.1875 240.355 24.1875 241.375 C7.03856383 246.94946809 7.03856383 246.94946809 -1.8125 248.375 C-1.8125 249.035 -1.8125 249.695 -1.8125 250.375 C-14.31390735 255.05518128 -26.87142803 259.48753693 -39.54296875 263.68359375 C-41.27444739 264.25950238 -43.00583456 264.83568605 -44.73713684 265.41212463 C-49.246111 266.91260532 -53.75627061 268.4094892 -58.26672363 269.90551758 C-62.79116279 271.40686111 -67.31449008 272.91154639 -71.83789062 274.41601562 C-77.08697469 276.16167001 -82.33622839 277.90680517 -87.58641052 279.64915466 C-94.83989782 282.05640297 -102.09264935 284.46548469 -109.33813477 286.89672852 C-110.43503128 287.26439835 -111.5319278 287.63206818 -112.6620636 288.01087952 C-114.58511664 288.6561235 -116.50762416 289.3029976 -118.42936707 289.95213318 C-126.06919298 292.51415362 -133.79537106 294.7249247 -141.55859375 296.87890625 C-145.15589919 297.88679812 -148.72405177 298.96074378 -152.28515625 300.08984375 C-162.75275012 303.40526418 -173.21506007 306.30374728 -183.9375 308.6875 C-185.02691895 308.92984375 -186.11633789 309.1721875 -187.23876953 309.421875 C-198.0600853 311.75520577 -208.77365893 313.75605205 -219.875 313.625 C-220.73859131 313.61750732 -221.60218262 313.61001465 -222.49194336 313.60229492 C-237.51421876 313.3499737 -252.7993339 309.59270304 -266.79833984 304.15405273 C-268.92510175 303.33144701 -271.06700156 302.56262131 -273.21484375 301.796875 C-285.93242348 297.16261993 -296.49091746 291.95769255 -302.84375 279.32421875 C-305.9248562 271.52160259 -306.19057005 262.37051701 -303.4375 254.4375 C-298.39166604 243.47217177 -289.9898323 234.0838589 -281.8125 225.375 C-280.46700962 223.8731953 -279.121552 222.3713606 -277.77734375 220.8684082 C-257.97369634 198.89615108 -232.24646315 182.67475749 -207.0625 167.5390625 C-206.17224121 166.99644775 -205.28198242 166.45383301 -204.36474609 165.89477539 C-202.73467403 164.92412314 -201.08233941 163.9893372 -199.40478516 163.10327148 C-195.62743539 161.03423894 -194.10935 160.18708329 -192.5859375 156.01953125 C-192.45445312 154.75496094 -192.32296875 153.49039063 -192.1875 152.1875 C-191.98975884 150.74980543 -191.78098852 149.31359437 -191.5625 147.87890625 C-191.45035156 147.13656738 -191.33820313 146.39422852 -191.22265625 145.62939453 C-186.67897794 120.65539123 -172.28882452 96.06399201 -156.8125 76.375 C-155.76738507 74.9608753 -154.7253366 73.54447493 -153.6875 72.125 C-145.66692877 61.4602844 -136.33917712 52.52565571 -125.8125 44.375 C-124.86890625 43.61445313 -123.9253125 42.85390625 -122.953125 42.0703125 C-101.06067223 24.67859241 -76.98585496 12.12721364 -49.9375 5.125 C-48.54047852 4.75544189 -48.54047852 4.75544189 -47.11523438 4.37841797 C-31.64985617 0.55435743 -15.8613532 -0.03744141 0 0 Z " fill="#082E8C" transform="translate(354.8125,156.625)"/>
<path d="M0 0 C1.9545222 1.09971757 3.93297921 2.14585829 5.91748047 3.19042969 C14.31560773 7.6731348 21.67552258 12.63302119 28.79638672 19.01074219 C30.03775391 20.10708984 30.03775391 20.10708984 31.30419922 21.22558594 C32.97258088 22.71353134 34.63012892 24.21370943 36.27685547 25.72558594 C37.95845583 27.25075835 39.67011535 28.74342045 41.40966797 30.20214844 C60.57982529 46.59804276 72.98060235 70.1173128 82.79638672 93.01074219 C83.37453125 94.29658203 83.37453125 94.29658203 83.96435547 95.60839844 C84.85465052 98.17896865 85.00219972 100.11600652 84.92138672 102.82324219 C84.90333984 103.6134375 84.88529297 104.40363281 84.86669922 105.21777344 C84.83189453 106.10529297 84.83189453 106.10529297 84.79638672 107.01074219 C79.62060547 110.23339844 79.62060547 110.23339844 77.79638672 111.01074219 C74.79638672 110.01074219 74.79638672 110.01074219 73.90844727 108.29931641 C73.66908447 107.56213379 73.42972168 106.82495117 73.18310547 106.06542969 C72.90781006 105.24284668 72.63251465 104.42026367 72.34887695 103.57275391 C71.92070679 102.24268311 71.92070679 102.24268311 71.48388672 100.88574219 C70.86645825 99.05161163 70.24664265 97.21828303 69.62451172 95.38574219 C69.16334961 94.01869141 69.16334961 94.01869141 68.69287109 92.62402344 C64.00302153 78.95295869 58.03144946 67.18897431 48.79638672 56.01074219 C48.17119141 55.25019531 47.54599609 54.48964844 46.90185547 53.70605469 C43.50754015 49.4478667 43.50754015 49.4478667 38.79638672 47.01074219 C37.76248902 45.36488882 36.76647662 43.69499376 35.79638672 42.01074219 C26.75623925 31.46390348 15.1964994 23.12382379 2.79638672 17.01074219 C2.81958984 18.06132812 2.84279297 19.11191406 2.86669922 20.19433594 C3.25990079 44.43405623 -8.07493493 62.72341242 -24.43017578 80.15917969 C-25.34541016 81.10019531 -26.26064453 82.04121094 -27.20361328 83.01074219 C-27.74219971 83.57196777 -28.28078613 84.13319336 -28.83569336 84.71142578 C-49.04301714 105.43790445 -78.09745354 118.93178007 -105.20361328 128.01074219 C-106.31615479 128.38706787 -106.31615479 128.38706787 -107.45117188 128.77099609 C-118.55785641 132.49469091 -129.71645125 135.7004318 -141.20361328 138.01074219 C-141.93 138.16172363 -142.65638672 138.31270508 -143.40478516 138.46826172 C-159.88508671 141.78075945 -188.24293275 146.09981591 -203.64111328 138.26074219 C-206.34901976 135.8830682 -207.03561455 134.33504627 -208.20361328 131.01074219 C-209.19361328 130.68074219 -210.18361328 130.35074219 -211.20361328 130.01074219 C-212.06748418 127.62203157 -212.70592497 125.41123784 -213.26611328 122.94824219 C-213.43530273 122.23087891 -213.60449219 121.51351562 -213.77880859 120.77441406 C-217.70552771 103.44842798 -219.02896999 86.27577996 -214.20361328 69.01074219 C-213.96384766 67.98464844 -213.72408203 66.95855469 -213.47705078 65.90136719 C-213.24244141 64.92683594 -213.00783203 63.95230469 -212.76611328 62.94824219 C-212.56115234 62.09101563 -212.35619141 61.23378906 -212.14501953 60.35058594 C-211.00195725 57.50953072 -209.37191118 56.15490319 -207.20361328 54.01074219 C-206.04887884 51.96612065 -204.9667429 49.87910412 -203.95361328 47.76074219 C-203.43283203 46.68308594 -202.91205078 45.60542969 -202.37548828 44.49511719 C-201.98876953 43.67527344 -201.60205078 42.85542969 -201.20361328 42.01074219 C-211.77418856 49.10777146 -218.14067306 58.97502956 -224.57861328 69.69824219 C-225.20401001 70.73053955 -225.20401001 70.73053955 -225.84204102 71.78369141 C-228.30540752 76.00330515 -230.04348313 80.12696963 -231.49267578 84.78930664 C-232.40314503 87.63421038 -233.52266346 90.36911022 -234.65234375 93.13256836 C-241.85750878 110.88480793 -246.12724312 127.27313984 -246.18896484 146.51660156 C-246.20140709 148.63510115 -246.27062882 150.75314629 -246.35205078 152.87011719 C-247.10731506 177.61954648 -238.98382267 200.88014838 -226.97314453 222.19433594 C-226.20361328 224.01074219 -226.20361328 224.01074219 -226.20361328 228.01074219 C-230.82361328 228.34074219 -235.44361328 228.67074219 -240.20361328 229.01074219 C-248.33233876 217.2958143 -252.24578192 203.61240837 -255.71484375 189.93457031 C-256.11303642 188.36725849 -256.53221792 186.80529099 -256.95751953 185.24511719 C-258.88465126 177.32096714 -258.37269566 169.10790938 -258.20361328 161.01074219 C-258.86361328 161.01074219 -259.52361328 161.01074219 -260.20361328 161.01074219 C-260.66875916 138.68851054 -259.24566092 119.18725741 -252.20361328 98.01074219 C-251.98866211 97.35396484 -251.77371094 96.6971875 -251.55224609 96.02050781 C-244.00481046 73.3443559 -231.37685069 54.37387878 -215.63232422 36.63183594 C-214.30711866 35.12818506 -213.00807771 33.60158427 -211.71142578 32.07324219 C-161.16383255 -26.2636523 -65.69654457 -37.24966279 0 0 Z " fill="#E4F3FB" transform="translate(438.20361328125,195.9892578125)"/>
<path d="M0 0 C12.72306649 3.67850209 22.72026962 13.98130282 32 23 C33.17369141 24.07314453 33.17369141 24.07314453 34.37109375 25.16796875 C36 27 36 27 36 30 C36.56332031 30.06832031 37.12664062 30.13664062 37.70703125 30.20703125 C47.83051589 33.70799783 56.21775951 50.37228629 60.71875 59.4765625 C63.86089927 66.57846111 66.38825885 73.83803863 68.7265625 81.234375 C70.30430452 85.89984526 72.1339401 90.4436366 74 95 C45.92576419 113 45.92576419 113 42 113 C41.67 113.99 41.34 114.98 41 116 C34.8671231 120.87421806 27.64302764 124.29634564 20.63330078 127.72387695 C13.70938387 131.10953433 6.90008427 134.70308078 0.09423828 138.31933594 C-0.75541504 138.76825195 -1.60506836 139.21716797 -2.48046875 139.6796875 C-3.23223389 140.07913574 -3.98399902 140.47858398 -4.75854492 140.89013672 C-8.74154694 142.86233225 -12.3954944 144.1114588 -16.76831055 144.90454102 C-21.748773 145.85353198 -26.09184445 147.46603071 -30.70703125 149.52734375 C-31.50279068 149.87235931 -32.29855011 150.21737488 -33.11842346 150.57284546 C-34.81256094 151.30773161 -36.50497228 152.04660831 -38.19573975 152.78921509 C-42.64003156 154.73945613 -47.09856723 156.6563814 -51.55859375 158.5703125 C-52.89129303 159.14260338 -52.89129303 159.14260338 -54.25091553 159.72645569 C-65.40794244 164.49166839 -76.74796745 168.72555272 -88.12890625 172.9230957 C-91.69654892 174.26126507 -95.22922517 175.6781056 -98.76220703 177.10473633 C-101.90432961 178.36179104 -105.06755224 179.5358608 -108.25 180.6875 C-109.38953125 181.10386719 -110.5290625 181.52023437 -111.703125 181.94921875 C-122.49756385 185.38962639 -132.61145547 184.62228395 -143 180 C-143.33 179.01 -143.66 178.02 -144 177 C-145.76923828 176.79697266 -145.76923828 176.79697266 -147.57421875 176.58984375 C-183.46528264 172.14877776 -219.24173893 161.67721908 -248 139 C-248.33 141.31 -248.66 143.62 -249 146 C-249.33 146 -249.66 146 -250 146 C-250.06061702 142.11377519 -250.052853 138.23117332 -250.01220703 134.34472656 C-250.00382502 132.73471046 -250.01083547 131.12456305 -250.03076172 129.51464844 C-250.25751765 108.19959093 -244.60670168 88.40937562 -235.4453125 69.234375 C-233.91289968 66.05982957 -233.91289968 66.05982957 -233.1875 62.7265625 C-231.52711737 57.51601963 -228.77353806 53.23631055 -225.875 48.625 C-225.33101562 47.73039062 -224.78703125 46.83578125 -224.2265625 45.9140625 C-219.37463002 38.11469441 -213.70697587 30.2135425 -206 25 C-205.34 25 -204.68 25 -204 25 C-205.65089689 30.62805758 -207.388968 35.34060388 -211 40 C-211.99 40.495 -211.99 40.495 -213 41 C-213.73012993 42.72623894 -213.73012993 42.72623894 -214.25390625 44.82421875 C-214.46853516 45.60603516 -214.68316406 46.38785156 -214.90429688 47.19335938 C-215.12150391 48.01642578 -215.33871094 48.83949219 -215.5625 49.6875 C-215.78357422 50.49123047 -216.00464844 51.29496094 -216.23242188 52.12304688 C-221.04241379 69.89531307 -219.28014143 87.99103936 -215.125 105.75 C-214.97579102 106.41773438 -214.82658203 107.08546875 -214.67285156 107.7734375 C-213.62406628 111.94284157 -212.27753771 114.240979 -209 117 C-208.29875 117.721875 -207.5975 118.44375 -206.875 119.1875 C-199.5262012 126.29133884 -181.44967152 123.40055111 -171.96875 123.28515625 C-157.29822577 123.00282734 -142.51071888 120.54709077 -128.51953125 116.09765625 C-125.84957782 115.26496267 -123.222639 114.53991933 -120.51171875 113.87109375 C-104.50849454 109.81593534 -89.82894346 103.10964853 -75 96 C-73.57034912 95.3181665 -73.57034912 95.3181665 -72.11181641 94.62255859 C-56.30251931 86.98713593 -42.70711581 77.11221339 -30 65 C-29.41476562 64.47792969 -28.82953125 63.95585937 -28.2265625 63.41796875 C-12.81695312 49.12971592 -1.59243632 28.56532079 -0.4375 7.625 C-0.37272461 6.52091797 -0.37272461 6.52091797 -0.30664062 5.39453125 C-0.20156201 3.59651932 -0.10037907 1.79828042 0 0 Z " fill="#44B9F8" transform="translate(441,213)"/>
<path d="M0 0 C2.29148532 37.76707293 -17.55050075 75.03810263 -41.45703125 102.859375 C-45.17866338 107.03155298 -48.94801785 111.14567552 -53 115 C-53.63550781 115.61875 -54.27101563 116.2375 -54.92578125 116.875 C-89.6928619 149.59695826 -136.74237524 164.15955382 -183.8203125 163.28515625 C-200.10869514 162.76540679 -215.60489963 160.34053358 -231 155 C-231.64420898 154.78504883 -232.28841797 154.57009766 -232.95214844 154.34863281 C-244.84267687 150.35728132 -255.88964934 144.77806817 -267 139 C-267 138.01 -267 137.02 -267 136 C-256.46916454 131.66377363 -249.73887397 130.82377124 -239 135 C-239 134.01 -239 133.02 -239 132 C-222.31436592 124.71563354 -205.65477004 117.54547434 -188.3659668 111.7902832 C-176.92452381 107.93420366 -166.09499502 103.09358267 -155.1875 97.9375 C-153.36519113 97.08328952 -151.54251328 96.22986581 -149.71948242 95.37719727 C-146.114329 93.68999436 -142.51098545 91.99902456 -138.90917969 90.3046875 C-133.63816659 87.82701469 -128.35312171 85.38080292 -123.06518555 82.93945312 C-114.08271862 78.7917284 -105.12625758 74.5928684 -96.19140625 70.34375 C-95.33885757 69.93858658 -94.4863089 69.53342316 -93.60792542 69.11598206 C-89.39121151 67.11156895 -85.17622213 65.10366797 -80.96411133 63.08959961 C-59.81109903 53 -59.81109903 53 -55 53 C-55 52.34 -55 51.68 -55 51 C-54.3201001 50.66266846 -53.6402002 50.32533691 -52.93969727 49.9777832 C-49.81287733 48.4248677 -46.68768334 46.8687063 -43.5625 45.3125 C-42.49322266 44.78205078 -41.42394531 44.25160156 -40.32226562 43.70507812 C-34.76124829 40.93307254 -29.2609439 38.10287764 -23.86279297 35.02441406 C-22.1401339 34.07706446 -20.35225029 33.25102286 -18.5625 32.4375 C-13.87865345 27.98213377 -14.22688616 21.35698913 -13.80859375 15.16796875 C-13.43899047 9.92274774 -13.13628183 6.68911623 -9 3 C-5.72675616 1.06277405 -3.8148669 0 0 0 Z " fill="#3755E9" transform="translate(529,354)"/>
<path d="M0 0 C1.32 0 2.64 0 4 0 C4.56111733 18.95368008 4.75587357 36.71831719 -1 55 C-1.39348633 56.28003906 -1.39348633 56.28003906 -1.79492188 57.5859375 C-10.21261988 84.47412394 -23.51030943 107.89035586 -42.69921875 128.51171875 C-44.69652435 130.67179288 -46.60543338 132.87547945 -48.5 135.125 C-73.40971672 163.55206098 -113.6423674 182.98657311 -150 191 C-150.721875 191.16516113 -151.44375 191.33032227 -152.1875 191.50048828 C-196.6289095 201.23211033 -245.42322921 191.02669503 -285.25 170.4375 C-286.5174707 169.78551636 -286.5174707 169.78551636 -287.81054688 169.12036133 C-296.66623691 164.38869639 -304.19841592 158.07977785 -311.625 151.375 C-312.26050781 150.8284375 -312.89601563 150.281875 -313.55078125 149.71875 C-315.21336737 148.21124241 -316.69513545 146.82634057 -318 145 C-317.8984375 142.1015625 -317.8984375 142.1015625 -317 140 C-309.52678392 137.84278299 -302.78961124 136.53469136 -295 137 C-294.67 136.01 -294.34 135.02 -294 134 C-286.98441948 130.85463826 -279.55590399 130.60539766 -272 131 C-272 132.98 -272 134.96 -272 137 C-270.8553125 137.185625 -270.8553125 137.185625 -269.6875 137.375 C-267 138 -267 138 -264 140 C-264 140.99 -264 141.98 -264 143 C-266.26882087 143.83919398 -268.53977027 144.67151724 -270.8125 145.5 C-271.45509766 145.73847656 -272.09769531 145.97695313 -272.75976562 146.22265625 C-275.64933739 147.27068746 -277.90076061 148 -281 148 C-281 148.99 -281 149.98 -281 151 C-280.20722656 151.23332031 -279.41445313 151.46664062 -278.59765625 151.70703125 C-274.92481287 153.02702165 -271.56040028 154.63675065 -268.07397461 156.37670898 C-250.97744285 164.87668852 -234.14841682 170.59593837 -215.14331055 172.75 C-213.18424816 172.97850893 -211.23201273 173.26371239 -209.28125 173.5546875 C-163.84585956 179.18564127 -115.90482259 164.96974424 -80 137 C-76.63751917 134.36785393 -73.31084587 131.69664302 -70 129 C-69.15308594 128.34064453 -69.15308594 128.34064453 -68.2890625 127.66796875 C-39.18198009 104.64411255 -20.31054908 62.70242213 -15.40234375 26.88671875 C-15.02283996 23.22063846 -14.89913503 19.68303683 -14.9375 16 C-14.95103516 14.2984375 -14.95103516 14.2984375 -14.96484375 12.5625 C-14.97644531 11.716875 -14.98804688 10.87125 -15 10 C-14.08476563 9.52949219 -13.16953125 9.05898438 -12.2265625 8.57421875 C-11.02583262 7.94571171 -9.8253232 7.31678337 -8.625 6.6875 C-7.72007812 6.2244043 -7.72007812 6.2244043 -6.796875 5.75195312 C-3.61741675 4.07390572 -2.03462448 3.05193672 0 0 Z " fill="#06196A" transform="translate(543,342)"/>
<path d="M0 0 C0.66 1.32 1.32 2.64 2 4 C-0.22765452 6.39724312 -2.45739721 8.79253447 -4.6875 11.1875 C-5.31333984 11.86103516 -5.93917969 12.53457031 -6.58398438 13.22851562 C-9.99317521 16.8875948 -13.45183708 20.47458171 -17 24 C-18.01880307 25.06200559 -19.0356042 26.125934 -20.05078125 27.19140625 C-21.13788898 28.31523173 -22.22513043 29.43892787 -23.3125 30.5625 C-23.84294922 31.12646484 -24.37339844 31.69042969 -24.91992188 32.27148438 C-28.42025827 35.85566116 -31.71172524 38.01869439 -36.25756836 40.09936523 C-38.50525879 41.26116011 -39.71260384 42.67137923 -41.125 44.75 C-43.60794407 47.94917793 -43.60794407 47.94917793 -47.375 48.4375 C-48.674375 48.2209375 -48.674375 48.2209375 -50 48 C-50.11142334 48.88703613 -50.11142334 48.88703613 -50.22509766 49.79199219 C-51.27827642 52.79292121 -52.76322233 53.58649251 -55.3984375 55.328125 C-56.30819336 55.93462891 -57.21794922 56.54113281 -58.15527344 57.16601562 C-59.0940332 57.77123047 -60.03279297 58.37644531 -61 59 C-61.84336914 59.54849609 -62.68673828 60.09699219 -63.55566406 60.66210938 C-66.23192081 62.38058034 -68.92467187 64.06961509 -71.625 65.75 C-72.63336914 66.3783374 -73.64173828 67.0066748 -74.68066406 67.65405273 C-82.95744285 72.78443658 -91.28919983 77.82214899 -99.65203857 82.81091309 C-101.03140378 83.63380497 -102.41004745 84.45790774 -103.78790283 85.2833252 C-111.26241632 89.75582683 -118.72124289 94.0056222 -126.61816406 97.70874023 C-128.90043185 98.94602132 -130.21505165 100.16039791 -132 102 C-133.90673828 103.11572266 -133.90673828 103.11572266 -136.0703125 104.1640625 C-136.87621826 104.55972412 -137.68212402 104.95538574 -138.51245117 105.36303711 C-139.37459229 105.77948486 -140.2367334 106.19593262 -141.125 106.625 C-148.56899732 110.2703921 -155.93181526 114.01767514 -163.17822266 118.04345703 C-167.35220129 120.30969372 -171.43954486 121.89694192 -176.01293945 123.19360352 C-178.27619262 124.11208554 -179.31086026 125.26383276 -181 127 C-182.94750977 128.08398438 -182.94750977 128.08398438 -185.19140625 129.09375 C-186.03985107 129.47845459 -186.8882959 129.86315918 -187.76245117 130.25952148 C-189.14847534 130.87355835 -189.14847534 130.87355835 -190.5625 131.5 C-192.02103394 132.15367554 -192.02103394 132.15367554 -193.5090332 132.82055664 C-204.16924536 137.56998862 -214.90883772 142.13155234 -225.68212891 146.61767578 C-227.85771002 147.52408787 -230.03191779 148.43380484 -232.20458984 149.34716797 C-262.25054663 161.96582436 -292.83684075 172.62692867 -324.0859375 181.83789062 C-327.46284645 182.83553953 -330.82670388 183.87106608 -334.1875 184.921875 C-381.33962809 199.49602031 -434.48740991 211.55627466 -484 210 C-484 209.34 -484 208.68 -484 208 C-484.969375 208.03480469 -485.93875 208.06960938 -486.9375 208.10546875 C-509.64462671 208.6720738 -534.66289903 202.49786069 -552 187 C-553.29296875 185 -553.29296875 185 -554.1875 183 C-554.49042969 182.34 -554.79335938 181.68 -555.10546875 181 C-555.40066406 180.34 -555.69585938 179.68 -556 179 C-556.66335168 177.66501432 -557.32959124 176.33145572 -558 175 C-557.47792969 175.22139648 -556.95585938 175.44279297 -556.41796875 175.67089844 C-545.13424571 180.41855949 -534.06941371 184.75270383 -522 187 C-521.22543457 187.14808105 -520.45086914 187.29616211 -519.65283203 187.44873047 C-500.90793552 190.85989773 -481.96856303 190.49631892 -463 190 C-461.88383301 189.97341309 -460.76766602 189.94682617 -459.61767578 189.91943359 C-425.593976 188.84673813 -390.96264217 181.11202697 -358 173 C-355.62638532 172.42934116 -353.25268707 171.85902986 -350.87890625 171.2890625 C-262.95857798 149.95229252 -175.90240286 115.20251006 -97.71337891 69.56396484 C-93.66909799 67.2328812 -89.57832005 64.9876551 -85.49194336 62.73144531 C-59.36810288 48.27568962 -35.09229709 32.1531613 -13 12 C-11.1882964 10.37411215 -9.37581052 8.74909551 -7.5625 7.125 C-4.97521398 4.80765554 -2.42881818 2.48348612 0 0 Z " fill="#21D5F7" transform="translate(597,281)"/>
<path d="M0 0 C0.66 0.33 1.32 0.66 2 1 C2.52997941 5.94647451 2.48870237 8.94324543 -0.4375 13.0625 C-3.5395353 16.83243763 -7.16841499 19.65310337 -11.14453125 22.45703125 C-13.27805097 23.9554272 -13.27805097 23.9554272 -14 27 C-15.64073071 28.04200792 -17.31273123 29.03516744 -19 30 C-20.81484228 31.42938905 -22.60570541 32.88960368 -24.375 34.375 C-27.52813702 37.00048656 -30.65862321 39.52184077 -34.0625 41.8125 C-37.04122688 43.63967387 -37.04122688 43.63967387 -37.78125 45.89453125 C-39.5836892 49.0083605 -42.35408968 50.23469067 -45.4375 51.875 C-46.12634277 52.25156738 -46.81518555 52.62813477 -47.52490234 53.01611328 C-50.00740981 54.36202539 -52.50181237 55.6834179 -55 57 C-56.00466309 57.52980469 -57.00932617 58.05960937 -58.04443359 58.60546875 C-73.26198132 66.60194355 -88.57212902 74.4172349 -104 82 C-104.91136719 82.44939941 -105.82273437 82.89879883 -106.76171875 83.36181641 C-119.94779733 89.84221311 -133.3020647 95.77240201 -146.8671875 101.4140625 C-151.51242931 103.35258259 -156.09396857 105.3968492 -160.66137695 107.51098633 C-167.68677313 110.75654906 -174.18801948 113.31171978 -182 114 C-182 114.99 -182 115.98 -182 117 C-199.14893617 122.57446809 -199.14893617 122.57446809 -208 124 C-208 124.66 -208 125.32 -208 126 C-223.87731882 132.04695195 -239.96706152 137.44750017 -256.08227539 142.81762695 C-259.8393241 144.06990811 -263.59352637 145.33050692 -267.34712315 146.59309101 C-270.27904202 147.57784185 -273.2127824 148.55707461 -276.14704704 149.53481102 C-277.53219192 149.99730428 -278.91670069 150.46170781 -280.3005085 150.92818642 C-287.08673615 153.21347837 -293.79314734 155.38327231 -300.86590576 156.60325623 C-304.88357087 157.35016964 -308.77378719 158.5884669 -312.6875 159.75 C-342.70050956 168.44058171 -372.97091601 175.09819755 -404 179 C-404.94262695 179.11859375 -405.88525391 179.2371875 -406.85644531 179.359375 C-419.66618363 180.89052835 -432.42740457 181.17741369 -445.3125 181.1875 C-446.07885773 181.18858765 -446.84521545 181.18967529 -447.63479614 181.1907959 C-449.81522736 181.1904441 -451.99539465 181.1813648 -454.17578125 181.16796875 C-455.44333252 181.16047607 -456.71088379 181.1529834 -458.0168457 181.14526367 C-461 181 -461 181 -463 180 C-463 179.34 -463 178.68 -463 178 C-461.68 178 -460.36 178 -459 178 C-459 177.34 -459 176.68 -459 176 C-460.299375 175.814375 -461.59875 175.62875 -462.9375 175.4375 C-472.73570019 173.21412124 -480.11841598 164.73210243 -486 157 C-490.10462315 149.76319885 -492.1663477 142.31562712 -491 134 C-486.70262919 121.13508613 -486.70262919 121.13508613 -482 118 C-480.56946073 120.86107853 -480.7672871 123.4995915 -480.625 126.6875 C-480.14880959 133.74377608 -479.41303357 138.10435971 -474.8125 143.625 C-458.662744 157.26257173 -437.50306107 158.56004645 -417.25 158.3125 C-416.4139624 158.30623596 -415.5779248 158.29997192 -414.71655273 158.29351807 C-402.0448733 158.19662409 -389.55425585 157.83649264 -377 156 C-376.34856018 155.90527405 -375.69712036 155.8105481 -375.02593994 155.71295166 C-362.99281115 153.95602051 -350.99069268 152.0250707 -339 150 C-337.78054688 149.79503906 -336.56109375 149.59007812 -335.3046875 149.37890625 C-305.95668627 144.34881148 -277.29242589 136.17338584 -249 127 C-247.40448086 126.48382111 -245.80893933 125.96771143 -244.21337891 125.45166016 C-237.48388941 123.27381095 -230.75466892 121.09524458 -224.03173828 118.8972168 C-223.26105515 118.6456633 -222.49037201 118.3941098 -221.69633484 118.13493347 C-220.24853249 117.66216007 -218.80109149 117.18827808 -217.3540802 116.71308899 C-214.79836663 115.8790708 -212.27424263 115.06182925 -209.65014648 114.47021484 C-207.76846343 114.08287149 -207.76846343 114.08287149 -206.1328125 112.0703125 C-203.50843236 109.52283728 -201.37514976 108.8786574 -197.875 107.875 C-196.16376953 107.38386719 -196.16376953 107.38386719 -194.41796875 106.8828125 C-189.97473158 105.73518781 -185.52244551 104.77585973 -181 104 C-181 103.34 -181 102.68 -181 102 C-178.69 102 -176.38 102 -174 102 C-174 101.01 -174 100.02 -174 99 C-173.31292969 98.74605469 -172.62585938 98.49210937 -171.91796875 98.23046875 C-171.01691406 97.88628906 -170.11585938 97.54210937 -169.1875 97.1875 C-168.29417969 96.85105469 -167.40085937 96.51460938 -166.48046875 96.16796875 C-163.99236228 95.17525888 -163.99236228 95.17525888 -162.5 93.44921875 C-160.44444507 91.46325292 -158.58552483 91.22732133 -155.8125 90.625 C-152.06836751 89.69386758 -149.21986681 88.71546327 -146.0625 86.5 C-141.9105056 83.62025233 -137.65270849 82.794874 -132.734375 81.87109375 C-129.52987805 80.85023258 -128.22510268 79.4691462 -126 77 C-121.69856793 74.41914076 -117.97607647 73.49760765 -113 73 C-112.67 72.01 -112.34 71.02 -112 70 C-109.3671875 68.640625 -109.3671875 68.640625 -105.875 67.25 C-104.59684418 66.72593455 -103.31952718 66.19981956 -102.04296875 65.671875 C-101.3782959 65.39923828 -100.71362305 65.12660156 -100.02880859 64.84570312 C-91.70411302 61.37557732 -83.61995285 57.70278731 -76.2421875 52.46875 C-72.63111032 50.10330572 -68.73968196 48.32788842 -64.86328125 46.44140625 C-59.99415531 43.99023644 -55.52894329 41.01929553 -51 38 C-48.76968902 36.51312601 -46.53258209 35.0890054 -44.25 33.6875 C-40.10225538 31.12213194 -36.15199713 28.30756465 -32.19921875 25.453125 C-30 24 -30 24 -27 23 C-26.2575 22.01 -26.2575 22.01 -25.5 21 C-24 19 -24 19 -21 18 C-19.7625 16.7315625 -19.7625 16.7315625 -18.5 15.4375 C-16 13 -16 13 -13 13 C-12.7525 12.360625 -12.505 11.72125 -12.25 11.0625 C-11 9 -11 9 -8.875 8.25 C-8.25625 8.1675 -7.6375 8.085 -7 8 C-7 7.01 -7 6.02 -7 5 C-4.625 3.4375 -4.625 3.4375 -2 2 C-1.34 1.34 -0.68 0.68 0 0 Z " fill="#1AAFF1" transform="translate(561,281)"/>
<path d="M0 0 C0.99 0 1.98 0 3 0 C4.30157342 4.26787643 5.58940463 8.53978597 6.875 12.8125 C7.42220703 14.6059082 7.42220703 14.6059082 7.98046875 16.43554688 C13.87044408 36.08664638 13.87044408 36.08664638 12 46 C12.5775 46.1134375 13.155 46.226875 13.75 46.34375 C18.01073423 47.58646415 21.41104473 50.45979964 25 53 C26.61068359 54.11761719 26.61068359 54.11761719 28.25390625 55.2578125 C29.35791271 56.04527657 30.46078807 56.83432893 31.5625 57.625 C32.59503906 58.35976562 33.62757813 59.09453125 34.69140625 59.8515625 C35.45324219 60.56054688 36.21507812 61.26953125 37 62 C37 63.32 37 64.64 37 66 C34.62770134 67.2138775 32.25238667 68.42115374 29.875 69.625 C29.15812012 69.99181885 28.44124023 70.3586377 27.70263672 70.73657227 C24.15043711 72.52831019 20.63344283 74.19496459 16.890625 75.55078125 C13.43176432 76.81226359 10.14777957 78.05359192 7 80 C6.02917091 82.39300855 5.89005495 84.34707086 5.7109375 86.91015625 C5 89 5 89 2.6015625 90.37109375 C0.48310902 91.14216813 -1.64092769 91.89802973 -3.76953125 92.640625 C-9.19624046 94.92417374 -12.91202655 98.85867616 -17 103 C-17.84175781 103.85207031 -18.68351563 104.70414062 -19.55078125 105.58203125 C-21.10801979 107.15913886 -22.65487916 108.74661483 -24.1875 110.34765625 C-26 112 -26 112 -28 112 C-28.02578125 111.11699219 -28.0515625 110.23398437 -28.078125 109.32421875 C-28.54012522 99.54871417 -29.58354851 89.17721112 -37 82 C-38.485 81.505 -38.485 81.505 -40 81 C-39.89268555 80.17902832 -39.78537109 79.35805664 -39.67480469 78.51220703 C-39.29991744 73.50333701 -39.03517864 69.576753 -41.71679688 65.19433594 C-44.10710153 62.5796229 -46.59395859 60.21879271 -49.25 57.875 C-50.12269531 57.05257812 -50.99539063 56.23015625 -51.89453125 55.3828125 C-54.92170747 52.55436694 -57.90507292 49.77871364 -61.28417969 47.37548828 C-61.85040039 46.92157715 -62.41662109 46.46766602 -63 46 C-63 45.34 -63 44.68 -63 44 C-52.9379819 41.28604416 -42.90422895 38.65038606 -32.6875 36.578125 C-29.91939244 36.03404325 -29.91939244 36.03404325 -27 35 C-26.34 33.35 -25.68 31.7 -25 30 C-31.27 30 -37.54 30 -44 30 C-44 29.67 -44 29.34 -44 29 C-42.91460938 28.96261719 -41.82921875 28.92523438 -40.7109375 28.88671875 C-39.26559261 28.82102125 -37.82028161 28.75457524 -36.375 28.6875 C-35.66214844 28.66494141 -34.94929687 28.64238281 -34.21484375 28.61914062 C-28.11508166 28.31135446 -23.99728493 26.91084911 -19.47265625 22.58203125 C-18.67730469 21.66808594 -17.88195312 20.75414062 -17.0625 19.8125 C-16.20398438 18.83539063 -15.34546875 17.85828125 -14.4609375 16.8515625 C-13.64882813 15.91054687 -12.83671875 14.96953125 -12 14 C-10.72924649 12.56242943 -9.45842363 11.12492017 -8.1875 9.6875 C-6.13292269 7.34286472 -4.17539004 4.95101581 -2.25 2.5 C-1.5075 1.675 -0.765 0.85 0 0 Z " fill="#32EBFB" transform="translate(601,167)"/>
<path d="M0 0 C0.99 0 1.98 0 3 0 C3.73739424 18.51678876 3.73739424 18.51678876 -0.3046875 23.66015625 C-2.12787155 25.01664008 -3.96011668 25.99867041 -6 27 C-6.72703125 27.41894531 -7.4540625 27.83789062 -8.203125 28.26953125 C-14.52435059 31.87740057 -21.06632804 35.09604581 -27.5625 38.375 C-28.90284302 39.05502075 -28.90284302 39.05502075 -30.27026367 39.7487793 C-31.11049072 40.1694165 -31.95071777 40.59005371 -32.81640625 41.0234375 C-33.57381104 41.40419434 -34.33121582 41.78495117 -35.11157227 42.17724609 C-37 43 -37 43 -39 43 C-39 43.66 -39 44.32 -39 45 C-40.01255859 45.40379883 -41.02511719 45.80759766 -42.06835938 46.22363281 C-52.23670068 50.32044367 -62.16063071 54.80492232 -72.03497314 59.56277466 C-76.36963622 61.65046869 -80.7123596 63.72127628 -85.0546875 65.79296875 C-85.95093842 66.2208519 -86.84718933 66.64873505 -87.77059937 67.08958435 C-101.89712657 73.82371863 -116.10980311 80.37415397 -130.32444763 86.91970825 C-134.81118207 88.98644332 -139.29009034 91.06867435 -143.76171875 93.16796875 C-152.7205129 97.35167103 -161.65745103 101.09377348 -171.03100586 104.24682617 C-187.19970519 109.70735674 -203.14669569 116.10840928 -218.7265625 123.07421875 C-221 124 -221 124 -223 124 C-222.67 125.32 -222.34 126.64 -222 128 C-225.51705958 127.34728444 -228.89325077 126.48606976 -232.3125 125.4375 C-233.19550781 125.16808594 -234.07851563 124.89867187 -234.98828125 124.62109375 C-235.65214844 124.41613281 -236.31601562 124.21117187 -237 124 C-235.515 123.505 -235.515 123.505 -234 123 C-234 122.01 -234 121.02 -234 120 C-236.63904371 118.58622659 -239.07120629 117.62759865 -242 117 C-242.495 114.525 -242.495 114.525 -243 112 C-236.70507912 108.44397498 -230.28444229 106.01589142 -223.38330078 103.9465332 C-216.18111022 101.7835295 -209.11807246 99.27558603 -202.04296875 96.73193359 C-200.05191623 96.01860001 -198.05789039 95.31437792 -196.0625 94.61328125 C-190.284476 92.5750588 -184.61712959 90.45111109 -179 88 C-177.00281155 87.22191111 -175.00240815 86.45205584 -173 85.6875 C-168.0094889 83.77783621 -163.02905807 81.84596402 -158.0625 79.875 C-156.85722656 79.39804687 -155.65195312 78.92109375 -154.41015625 78.4296875 C-150.58725114 76.82695752 -146.93085045 74.99488435 -143.24780273 73.09716797 C-137.47389833 70.1611844 -131.56538231 67.57887915 -125.625 65 C-93.543452 50.9464846 -61.84972585 36.05323933 -31.53564453 18.46679688 C-27.35503025 16.04843267 -23.15004212 13.67469339 -18.9375 11.3125 C-17.85662109 10.69677124 -17.85662109 10.69677124 -16.75390625 10.06860352 C-13.72865107 8.37305521 -10.97899962 6.99302452 -7.671875 5.89453125 C-4.19574738 4.73073999 -2.52499622 2.59323937 0 0 Z " fill="#183EC9" transform="translate(513,362)"/>
<path d="M0 0 C2.29148532 37.76707293 -17.55050075 75.03810263 -41.45703125 102.859375 C-45.17866338 107.03155298 -48.94801785 111.14567552 -53 115 C-53.63550781 115.61875 -54.27101563 116.2375 -54.92578125 116.875 C-89.6928619 149.59695826 -136.74237524 164.15955382 -183.8203125 163.28515625 C-200.10869514 162.76540679 -215.60489963 160.34053358 -231 155 C-231.64420898 154.78504883 -232.28841797 154.57009766 -232.95214844 154.34863281 C-244.84267687 150.35728132 -255.88964934 144.77806817 -267 139 C-267 138.01 -267 137.02 -267 136 C-265.34015202 135.31653318 -263.67163195 134.65411685 -262 134 C-261.071875 133.62875 -260.14375 133.2575 -259.1875 132.875 C-251.26017421 130.69887135 -246.05559973 132.40337897 -238.875 135.75 C-231.00783802 139.23286214 -223.38272631 141.97590236 -215 144 C-213.31197266 144.41185547 -213.31197266 144.41185547 -211.58984375 144.83203125 C-177.95145901 152.53055673 -138.03182654 151.47025154 -106.97216797 135.03613281 C-104.77969913 133.88425887 -102.56542714 132.78201685 -100.34765625 131.6796875 C-76.91915795 119.88697642 -56.19676767 103.5168315 -41 82 C-40.38439209 81.1349585 -40.38439209 81.1349585 -39.75634766 80.25244141 C-25.80488269 60.49905801 -15.51011732 38.62307973 -13.90942383 14.22973633 C-13.4980594 9.32724026 -12.65594234 6.57529656 -9 3 C-5.72675616 1.06277405 -3.8148669 0 0 0 Z " fill="#ACB9F4" transform="translate(529,354)"/>
<path d="M0 0 C0.64324219 0.4125 1.28648437 0.825 1.94921875 1.25 C3.88471877 2.48695294 5.82388767 3.71817394 7.765625 4.9453125 C9.82887424 6.25602398 11.8821791 7.58261561 13.921875 8.9296875 C40.57559174 26.12340633 71.41906271 33.30123038 102.3515625 38.359375 C103.22554688 38.57078125 104.09953125 38.7821875 105 39 C105.33 39.66 105.66 40.32 106 41 C120.90686233 47.07809565 131.57054267 44.59856296 146.25 39.6875 C147.11496094 39.40455078 147.97992188 39.12160156 148.87109375 38.83007812 C154.55922647 36.93543421 160.0791785 34.7696636 165.59814453 32.43041992 C169.53569689 30.77474895 173.49389878 29.17524545 177.45703125 27.58203125 C178.98693237 26.965662 180.51679825 26.34920527 182.04663086 25.73266602 C184.4543595 24.76257309 186.86210617 23.79252608 189.27005005 22.82296753 C200.33751921 18.36160825 211.34419703 13.81481673 222.1730957 8.79418945 C226.63452174 6.77889003 229.98586295 5.47005056 235 6 C233.4868637 9.0262726 230.67822621 9.62309407 227.6875 10.875 C226.99382324 11.17108154 226.30014648 11.46716309 225.58544922 11.7722168 C223.97998305 12.457377 222.37345087 13.14004237 220.76611328 13.82080078 C217.71054458 15.12339538 214.66564734 16.44921305 211.62109375 17.77734375 C179.6757627 31.67076093 147.23309575 44.09927034 113.35693359 52.41357422 C110.18195081 53.20353782 107.02954752 54.06990868 103.875 54.9375 C95.18160581 57.26939811 86.42377599 59.34177901 77.66894531 61.42895508 C70.14344632 63.21321625 70.14344632 63.21321625 62.66015625 65.1640625 C56.20734064 66.91808752 49.7482493 68.28870382 43.1484375 69.3515625 C42.44746948 69.46647034 41.74650146 69.58137817 41.02429199 69.69976807 C34.02276671 70.84165026 27.01281037 71.92984619 20 73 C19.74968018 72.35135986 19.49936035 71.70271973 19.24145508 71.03442383 C17.30099228 66.08228216 15.23044876 61.36676847 12.6875 56.6875 C3.28300693 38.58172574 -0.42607106 20.191034 0 0 Z " fill="#1460E1" transform="translate(192,351)"/>
<path d="M0 0 C0.763125 0.20625 1.52625 0.4125 2.3125 0.625 C2.41272461 1.57117188 2.51294922 2.51734375 2.61621094 3.4921875 C3.00005983 7.08690069 3.39891602 10.67983096 3.80175781 14.27246094 C3.97236318 15.81174304 4.13918264 17.35145063 4.30175781 18.89160156 C6.07604044 35.64871524 9.95822542 50.60282302 16.30859375 66.25976562 C18.41952552 71.63527792 19.86476421 75.83434734 19.3125 81.625 C5.28199449 86.65175665 -12.6198102 84.65990923 -26.875 81.4375 C-27.75164307 81.24148193 -28.62828613 81.04546387 -29.53149414 80.84350586 C-38.85542322 78.4805737 -46.29158495 73.71887258 -51.6875 65.625 C-52.82840589 55.7569049 -51.32697684 47.73337753 -45.25 39.875 C-43.75041869 38.10675513 -42.2273646 36.35827754 -40.6875 34.625 C-40.24196777 34.1192041 -39.79643555 33.6134082 -39.33740234 33.09228516 C-8.94809625 -1.24857157 -8.94809625 -1.24857157 0 0 Z " fill="#F8F8FB" transform="translate(157.6875,346.375)"/>
<path d="M0 0 C19.25106568 -1.10122622 38.98639422 4.29593419 53.47265625 17.203125 C60.72447214 24.13656849 64.61535888 29.87072158 65.16796875 40.11328125 C65.31891703 64.83860883 50.61207313 83.91914634 34 101 C33.52771973 101.49274414 33.05543945 101.98548828 32.56884766 102.49316406 C26.11758916 109.21803009 19.33329929 115.263535 12 121 C11.31421875 121.54092285 10.6284375 122.0818457 9.921875 122.63916016 C-14.62972294 142 -14.62972294 142 -18 142 C-18 142.66 -18 143.32 -18 144 C-19.95605469 145.46459961 -19.95605469 145.46459961 -22.671875 147.15234375 C-24.13367188 148.06983398 -24.13367188 148.06983398 -25.625 149.00585938 C-26.65625 149.64330078 -27.6875 150.28074219 -28.75 150.9375 C-30.76648172 152.19524209 -32.7821385 153.45430795 -34.796875 154.71484375 C-35.69760742 155.27292725 -36.59833984 155.83101074 -37.52636719 156.40600586 C-39.99970471 157.94101676 -39.99970471 157.94101676 -42.13769531 159.70532227 C-44 161 -44 161 -47 161 C-47 160.01 -47 159.02 -47 158 C-44.76023834 156.32546834 -42.5572421 154.84348455 -40.1875 153.375 C-34.25961361 149.57840175 -28.816968 145.59051604 -23.46484375 141.0078125 C-21 139 -21 139 -18.1171875 137.09765625 C-14.58400057 134.72006053 -11.40354363 132.09599978 -8.1875 129.3125 C-7.57366455 128.78213135 -6.9598291 128.2517627 -6.32739258 127.70532227 C13.42678425 110.49404486 35.68980646 84.91837853 40 58 C40.56265694 47.89834513 40.68261908 38.1275097 34 30 C29.34961534 25.40792006 24.51910812 22.48068096 18.5625 19.875 C17.12586211 19.22753786 15.6896622 18.579103 14.25390625 17.9296875 C13.55410645 17.61483398 12.85430664 17.29998047 12.13330078 16.97558594 C9.93798362 15.97163911 7.75935883 14.94137526 5.58984375 13.8828125 C4.94781006 13.56973145 4.30577637 13.25665039 3.64428711 12.93408203 C2 12 2 12 0 10 C-0.1953125 7.6171875 -0.1953125 7.6171875 -0.125 4.875 C-0.10695313 3.96492187 -0.08890625 3.05484375 -0.0703125 2.1171875 C-0.04710937 1.41851562 -0.02390625 0.71984375 0 0 Z " fill="#40E6FB" transform="translate(627,184)"/>
<path d="M0 0 C-1.65089689 5.62805758 -3.388968 10.34060388 -7 15 C-7.66 15.33 -8.32 15.66 -9 16 C-9.73012993 17.72623894 -9.73012993 17.72623894 -10.25390625 19.82421875 C-10.46853516 20.60603516 -10.68316406 21.38785156 -10.90429688 22.19335938 C-11.12150391 23.01642578 -11.33871094 23.83949219 -11.5625 24.6875 C-11.78357422 25.49123047 -12.00464844 26.29496094 -12.23242188 27.12304688 C-17.04241379 44.89531307 -15.28014143 62.99103936 -11.125 80.75 C-10.97579102 81.41773438 -10.82658203 82.08546875 -10.67285156 82.7734375 C-9.62098501 86.95509103 -8.25750419 89.21147501 -5 92 C-3.64843325 93.65191491 -2.31037934 95.31522656 -1 97 C-11.97153877 97.79153386 -22.94866318 95.46524058 -32 89 C-33.59122448 87.20740468 -35.08684172 85.36050558 -36.578125 83.484375 C-38.51860164 81.45860269 -40.23789607 81.08123835 -43 81 C-42.43655515 75.12691602 -41.2349347 69.94311648 -39.3125 64.375 C-39.04920898 63.59664795 -38.78591797 62.8182959 -38.51464844 62.01635742 C-36.40699072 55.90402502 -33.97130269 50.00133576 -31.296875 44.11328125 C-29.91867267 41.03223346 -29.91867267 41.03223346 -29.2109375 37.75390625 C-27.52868595 32.53892644 -24.77965451 28.24604127 -21.875 23.625 C-21.33101562 22.73039062 -20.78703125 21.83578125 -20.2265625 20.9140625 C-7.21607013 0 -7.21607013 0 0 0 Z " fill="#69ADEF" transform="translate(237,238)"/>
<path d="M0 0 C0.33 0 0.66 0 1 0 C1.33 3.3 1.66 6.6 2 10 C6.455 10.99 6.455 10.99 11 12 C10.95456055 12.98057373 10.95456055 12.98057373 10.90820312 13.98095703 C10.61734762 20.34286189 10.35119314 26.70529823 10.11132812 33.06933594 C10.04650105 34.7758802 9.97890739 36.48233204 9.90429688 38.18847656 C8.84234532 63.55278105 16.91338167 87.32565192 29.23046875 109.18359375 C30 111 30 111 30 115 C25.38 115.33 20.76 115.66 16 116 C7.87127453 104.28507211 3.95783136 90.60166619 0.48876953 76.92382812 C0.09057686 75.35651631 -0.32860464 73.7945488 -0.75390625 72.234375 C-2.68103798 64.31022495 -2.16908238 56.0971672 -2 48 C-2.66 48 -3.32 48 -4 48 C-4.80016414 9.60032827 -4.80016414 9.60032827 0 0 Z " fill="#A0C0F8" transform="translate(182,309)"/>
<path d="M0 0 C0.66 0 1.32 0 2 0 C2.04898438 1.14855469 2.09796875 2.29710937 2.1484375 3.48046875 C2.37977958 17.43587063 2.37977958 17.43587063 5 31 C6.79175647 32.21674695 6.79175647 32.21674695 9 33 C10.55448072 34.10722662 12.09521774 35.23389206 13.625 36.375 C18.4827817 39.83761523 23.37469829 42.07303495 29 44 C29 44.66 29 45.32 29 46 C24.05 46 19.1 46 14 46 C14 45.34 14 44.68 14 44 C10.89420506 44.02279401 7.79209516 44.10007819 4.6875 44.1875 C3.36588867 44.19620117 3.36588867 44.19620117 2.01757812 44.20507812 C-3.05421786 44.25862539 -3.05421786 44.25862539 -7.015625 47.06640625 C-8.19810457 50.59038306 -8.89075571 54.08608081 -9.4375 57.75 C-10.48195714 64.04693361 -12.04113969 69.28633872 -15 75 C-15.66 75 -16.32 75 -17 75 C-17.19762087 52.02429339 -17.19762087 52.02429339 -16.12109375 44.0234375 C-15.98866207 41.81054685 -16.35546419 40.11025797 -17 38 C-17.87785156 37.85304688 -17.87785156 37.85304688 -18.7734375 37.703125 C-25.07285128 36.60592981 -31.31934941 35.31435435 -37.5625 33.9375 C-38.36026855 33.7631543 -39.15803711 33.58880859 -39.97998047 33.40917969 C-45.75686204 32.12156898 -45.75686204 32.12156898 -48 31 C-48 30.34 -48 29.68 -48 29 C-41.0448239 27.92596231 -34.22685837 26.97466037 -27.1875 26.75 C-20.688598 26.22284935 -16.51299925 24.80906481 -12 20 C-7.3802093 13.74275016 -3.43107762 6.97373499 0 0 Z " fill="#F0FCFC" transform="translate(597,184)"/>
<path d="M0 0 C10.55173286 -0.44689692 22.40727745 -0.73096599 31 6 C33.265625 8.21875 33.265625 8.21875 35.25 10.5 C35.91515625 11.2528125 36.5803125 12.005625 37.265625 12.78125 C41.36744192 18.0286194 41.76192762 22.47056962 41 29 C38.81844489 36.69422731 33.67210479 45.55193014 27 50 C26.01 50 25.02 50 24 50 C23.27296875 48.22109375 23.27296875 48.22109375 22.53125 46.40625 C16.50569269 31.79488094 10.04794165 17.77430956 1.46875 4.4765625 C0 2 0 2 0 0 Z " fill="#F4F5F9" transform="translate(513,237)"/>
<path d="M0 0 C0.99 0 1.98 0 3 0 C3 0.66 3 1.32 3 2 C4.7634375 1.938125 4.7634375 1.938125 6.5625 1.875 C10.73676693 1.86757248 14.06325871 2.6341918 18 4 C18.33 4.33 18.66 4.66 19 5 C18.94531139 7.45298426 18.82708763 9.87031923 18.66015625 12.31640625 C18.61434921 13.04746078 18.56854218 13.77851532 18.52134705 14.53172302 C18.37333474 16.87566043 18.21799537 19.21904825 18.0625 21.5625 C17.96110702 23.14775573 17.86018927 24.73304194 17.75976562 26.31835938 C17.51203136 30.21261509 17.25772315 34.10639311 17 38 C17.66 38 18.32 38 19 38 C19.165 37.319375 19.33 36.63875 19.5 35.9375 C21.7308024 31.5688453 25.2541512 29.07495051 29 26 C29.5671875 25.4740625 30.134375 24.948125 30.71875 24.40625 C34.42777778 21 34.42777778 21 37 21 C37.66 21.33 38.32 21.66 39 22 C40.0725 22.515625 41.145 23.03125 42.25 23.5625 C43.1575 24.036875 44.065 24.51125 45 25 C44.97160693 28.65560831 44.58277007 31.68029394 43 35 C40.16911077 36.68591174 37.34687753 37.61463848 34.23046875 38.67578125 C28.78358902 40.9085409 25.08473119 44.86196074 21 49 C20.15824219 49.85207031 19.31648437 50.70414062 18.44921875 51.58203125 C16.89198021 53.15913886 15.34512084 54.74661483 13.8125 56.34765625 C12 58 12 58 10 58 C9.96132813 56.67548828 9.96132813 56.67548828 9.921875 55.32421875 C9.45987478 45.54871417 8.41645149 35.17721112 1 28 C0.01 27.67 -0.98 27.34 -2 27 C-2 22.38 -2 17.76 -2 13 C-0.205625 13.144375 1.58875 13.28875 3.4375 13.4375 C4.95150391 13.55931641 4.95150391 13.55931641 6.49609375 13.68359375 C9 14 9 14 10 15 C9.41196203 11.97580475 8.77321882 8.98241547 8 6 C7.34 6 6.68 6 6 6 C5.67 5.34 5.34 4.68 5 4 C2.47266765 3.34444881 2.47266765 3.34444881 0 3 C0 2.01 0 1.02 0 0 Z " fill="#24A0F1" transform="translate(563,221)"/>
<path d="M0 0 C5.3284105 1.74198036 9.19753566 5.16550825 12 10 C12.95869369 14.03742548 12.23121825 17.36719216 10.8125 21.25 C8.83410908 24.25169656 6.9598236 25.97865706 4 28 C3.401875 28.4125 2.80375 28.825 2.1875 29.25 C-1.22454714 30.41984473 -4.47170573 30.55172169 -8 30 C-12.78747751 27.51419437 -16.70374644 24.24063391 -18.75 19.125 C-19.30878205 14.37535259 -19.6043963 11.14163746 -17.3125 6.8125 C-11.9876949 0.33638569 -8.26432565 -1.06464743 0 0 Z " fill="#0DCCFC" transform="translate(144,204)"/>
<path d="M0 0 C0.6875 1.6875 0.6875 1.6875 1 4 C-0.96583356 8.62549074 -3.9091175 10.29433715 -8 13 C-9.76948379 14.45580257 -11.51867779 15.93651452 -13.25 17.4375 C-32.6690255 33.86827584 -54.66156037 47.66869206 -75.9375 61.5625 C-76.5982251 61.9970752 -77.2589502 62.43165039 -77.93969727 62.87939453 C-81.19214667 64.98028586 -84.34204264 66.71589732 -88 68 C-87.7216763 64.83852823 -87.00777672 64.00673153 -84.55859375 61.88671875 C-83.52863281 61.16097656 -82.49867188 60.43523437 -81.4375 59.6875 C-76.90164017 56.44393103 -72.66955512 53.05435228 -68.62109375 49.21484375 C-67 48 -67 48 -64 48 C-63.93425781 47.41992188 -63.86851562 46.83984375 -63.80078125 46.2421875 C-62.68213548 43.10997934 -60.85321248 42.06866737 -58.1875 40.125 C-54.26006723 37.07969447 -51.11385337 34.61204372 -49 30 C-48.70889371 27.23950931 -48.80761277 24.78961489 -49 22 C-49.763125 22.680625 -50.52625 23.36125 -51.3125 24.0625 C-52.6428125 25.0215625 -52.6428125 25.0215625 -54 26 C-54.99 25.67 -55.98 25.34 -57 25 C-55.93356893 23.32246798 -54.84625276 21.65819745 -53.75 20 C-53.14671875 19.071875 -52.5434375 18.14375 -51.921875 17.1875 C-51.28765625 16.465625 -50.6534375 15.74375 -50 15 C-48.68 15 -47.36 15 -46 15 C-45.505 21.93 -45.505 21.93 -45 29 C-43.9275 28.690625 -42.855 28.38125 -41.75 28.0625 C-38 27 -38 27 -35.8125 26.6875 C-33.76611552 26.09572507 -33.76611552 26.09572507 -32.34765625 23.8046875 C-29.47011945 20.36696466 -26.26236622 18.01874119 -22.625 15.4375 C-21.97789062 14.96892578 -21.33078125 14.50035156 -20.6640625 14.01757812 C-18.78588235 12.66384949 -16.89540081 11.32947304 -15 10 C-13.93265625 9.24332031 -12.8653125 8.48664063 -11.765625 7.70703125 C-8.485998 5.68274171 -5.80912689 5.30473015 -2 5 C-1.34 3.35 -0.68 1.7 0 0 Z " fill="#0D40B2" transform="translate(611,260)"/>
<path d="M0 0 C1.73534468 0.03974072 3.47019838 0.11110864 5.203125 0.2109375 C6.09128906 0.23800781 6.97945312 0.26507813 7.89453125 0.29296875 C10.08320895 0.36357126 12.26692068 0.46208223 14.453125 0.5859375 C14.453125 1.2459375 14.453125 1.9059375 14.453125 2.5859375 C15.12891602 2.57022705 15.80470703 2.5545166 16.50097656 2.53833008 C19.56827397 2.47589883 22.63543759 2.43692103 25.703125 2.3984375 C26.76660156 2.37330078 27.83007812 2.34816406 28.92578125 2.32226562 C29.95058594 2.31259766 30.97539063 2.30292969 32.03125 2.29296875 C32.97387695 2.2772583 33.91650391 2.26154785 34.88769531 2.24536133 C37.87622674 2.64210679 39.23001717 3.60298021 41.453125 5.5859375 C36.81516268 7.9311054 32.16782161 10.25556591 27.50927734 12.55957031 C25.73803689 13.44371836 23.97906895 14.35237535 22.22265625 15.265625 C16.41426588 18.165724 12.81176768 19.32011278 6.453125 17.5859375 C5.793125 16.9259375 5.133125 16.2659375 4.453125 15.5859375 C0.89388349 15.89802131 -1.03334742 17.60826491 -3.609375 19.9609375 C-4.28097656 20.56679687 -4.95257812 21.17265625 -5.64453125 21.796875 C-6.85314237 22.93351544 -8.03231568 24.10296107 -9.16796875 25.3125 C-10.546875 26.5859375 -10.546875 26.5859375 -12.546875 26.5859375 C-11.98633448 23.37319323 -11.39438763 20.1669941 -10.796875 16.9609375 C-10.63960937 16.05730469 -10.48234375 15.15367187 -10.3203125 14.22265625 C-7.69964308 0.4137443 -7.69964308 0.4137443 0 0 Z " fill="#10A0F4" transform="translate(596.546875,227.4140625)"/>
<path d="M0 0 C0.66 0 1.32 0 2 0 C2.07347656 1.72283203 2.07347656 1.72283203 2.1484375 3.48046875 C2.37977958 17.43587063 2.37977958 17.43587063 5 31 C6.79175647 32.21674695 6.79175647 32.21674695 9 33 C10.55448072 34.10722662 12.09521774 35.23389206 13.625 36.375 C18.4827817 39.83761523 23.37469829 42.07303495 29 44 C29 44.66 29 45.32 29 46 C24.05 46 19.1 46 14 46 C14 45.34 14 44.68 14 44 C10.89420506 44.02279401 7.79209516 44.10007819 4.6875 44.1875 C3.36588867 44.19620117 3.36588867 44.19620117 2.01757812 44.20507812 C-3.05421786 44.25862539 -3.05421786 44.25862539 -7.015625 47.06640625 C-8.19810457 50.59038306 -8.89075571 54.08608081 -9.4375 57.75 C-10.48195714 64.04693361 -12.04113969 69.28633872 -15 75 C-15.66 75 -16.32 75 -17 75 C-17.19726647 52.06549645 -17.19726647 52.06549645 -16.12109375 43.828125 C-15.83880905 41.90125491 -15.83880905 41.90125491 -17 40 C-14.00675737 41.0975223 -13.15389099 41.67682892 -11.75 44.625 C-11.5025 45.40875 -11.255 46.1925 -11 47 C-10.34 47 -9.68 47 -9 47 C-8.71125 46.195625 -8.4225 45.39125 -8.125 44.5625 C-7 42 -7 42 -5 41 C-4.67866664 38.90215218 -4.62101938 36.83454681 -4.5390625 34.71484375 C-4.01477319 32.0744012 -3.27899825 30.5973261 -1.9765625 28.28515625 C0.45372397 23.64932766 0.46783005 19.64414052 0.25 14.5 C0.22292969 13.26636719 0.22292969 13.26636719 0.1953125 12.0078125 C0.1487283 10.00469196 0.07700699 8.00218179 0 6 C-0.99 6.66 -1.98 7.32 -3 8 C-1.125 2.25 -1.125 2.25 0 0 Z " fill="#CBF9FC" transform="translate(597,184)"/>
<path d="M0 0 C2.68125418 2.38246339 4.11423459 4.8545504 5.6875 8.0625 C6.34298828 9.37927734 6.34298828 9.37927734 7.01171875 10.72265625 C8 13 8 13 8 15 C12.3039919 16.74849671 16.64750591 18.3770361 21 20 C18.72984147 23.40523779 17.79140014 23.68585017 14.0625 25 C10.65886398 26.2030525 8.21918639 27.09142139 6 30 C4.78133025 32.71825785 4.78133025 32.71825785 3.8125 35.6875 C3.46832031 36.68136719 3.12414062 37.67523438 2.76953125 38.69921875 C2.51558594 39.45847656 2.26164063 40.21773437 2 41 C-0.81914429 38.18085571 -1.20543177 35.10142904 -2.21875 31.3125 C-2.86321736 28.84105678 -2.86321736 28.84105678 -5 27 C-7.3685373 26.06280898 -9.71695199 25.19516685 -12.125 24.375 C-12.78371094 24.14554688 -13.44242188 23.91609375 -14.12109375 23.6796875 C-15.74561226 23.11463758 -17.37257971 22.55663723 -19 22 C-19 21.34 -19 20.68 -19 20 C-18.10796875 19.5875 -17.2159375 19.175 -16.296875 18.75 C-7.63769734 14.65834243 -7.63769734 14.65834243 -2.56640625 6.8671875 C-2.37949219 6.25101563 -2.19257812 5.63484375 -2 5 C-1.5875 4.01 -1.175 3.02 -0.75 2 C-0.5025 1.34 -0.255 0.68 0 0 Z " fill="#26E0FB" transform="translate(547,142)"/>
<path d="M0 0 C3.64204146 2.16109086 6.42782349 4.63547486 9 8 C9.8616187 12.16449039 9.27352024 14.22502597 7.875 18.1875 C5.55416594 21.6687511 3.78078081 23.17962405 0 25 C-4.29201426 25.67370241 -7.82433973 25.46004097 -11.875 23.875 C-15.55010659 20.63225889 -16.76622615 17.4026431 -17.5625 12.625 C-16.79423547 7.67396193 -14.39450886 4.60556641 -11 1 C-7.39319806 -0.80340097 -3.91287422 -0.83329729 0 0 Z " fill="#11D2FC" transform="translate(181,510)"/>
<path d="M0 0 C2.475 0.495 2.475 0.495 5 1 C4.38917996 6.5062328 2.45038661 11.07808871 0.3125 16.125 C-3.86089788 26.2220523 -7.04819578 36.48978802 -10 47 C-13.12290635 46.51421457 -15.99580359 46.0013988 -19 45 C-20.83138484 39.82841896 -18.8884174 35.9122224 -17 31.0625 C-16.68039307 30.22364258 -16.36078613 29.38478516 -16.03149414 28.52050781 C-12.01104475 18.17629839 -7.85778551 8.04943882 0 0 Z " fill="#D8E8FA" transform="translate(203,274)"/>
<path d="M0 0 C0.66 0.33 1.32 0.66 2 1 C3.0725 1.515625 4.145 2.03125 5.25 2.5625 C6.61125 3.2740625 6.61125 3.2740625 8 4 C7.97160693 7.65560831 7.58277007 10.68029394 6 14 C3.16911077 15.68591174 0.34687753 16.61463848 -2.76953125 17.67578125 C-8.21641098 19.9085409 -11.91526881 23.86196074 -16 28 C-16.84175781 28.85207031 -17.68351563 29.70414062 -18.55078125 30.58203125 C-20.10801979 32.15913886 -21.65487916 33.74661483 -23.1875 35.34765625 C-25 37 -25 37 -27 37 C-27.495 29.575 -27.495 29.575 -28 22 C-27.01 22.33 -26.02 22.66 -25 23 C-25 24.65 -25 26.3 -25 28 C-24.01 28 -23.02 28 -22 28 C-21.81824219 27.26394531 -21.63648438 26.52789062 -21.44921875 25.76953125 C-18.92379323 15.96569986 -15.69406538 11.4238876 -8 5 C-7.43410156 4.4740625 -6.86820313 3.948125 -6.28515625 3.40625 C-2.56666667 0 -2.56666667 0 0 0 Z " fill="#1284E8" transform="translate(600,242)"/>
<path d="M0 0 C0.66 0.33 1.32 0.66 2 1 C2 1.66 2 2.32 2 3 C3.52137573 3.3556604 3.52137573 3.3556604 5.07348633 3.71850586 C8.83651404 4.59860045 12.59910738 5.4805398 16.36157227 6.36303711 C17.99003499 6.7447258 19.61861508 7.12591414 21.24731445 7.5065918 C23.58836405 8.05385941 25.92898566 8.60292514 28.26953125 9.15234375 C28.99775589 9.3221727 29.72598053 9.49200165 30.47627258 9.66697693 C33.3653711 10.3466705 36.18240918 11.06080306 39 12 C39 12.66 39 13.32 39 14 C32.07 13.505 32.07 13.505 25 13 C25 12.34 25 11.68 25 11 C24.01 11 23.02 11 22 11 C22 11.99 22 12.98 22 14 C23.65 14 25.3 14 27 14 C27.33 14.99 27.66 15.98 28 17 C28.66 17 29.32 17 30 17 C32.15305957 20.85756507 33.39253254 23.55129785 33 28 C32.34 27.34 31.68 26.68 31 26 C29.1616403 25.76442857 27.31603431 25.58392999 25.46875 25.43359375 C17.95783498 24.28384944 14.42215146 20.57205107 9.5 15.0625 C7.9704459 13.42679792 6.43925681 11.79262284 4.90625 10.16015625 C4.24947266 9.43449463 3.59269531 8.70883301 2.91601562 7.96118164 C1.04594493 5.93807253 1.04594493 5.93807253 -1.24414062 4.36499023 C-1.82357422 3.91454346 -2.40300781 3.46409668 -3 3 C-3 2.34 -3 1.68 -3 1 C-2.01 0.67 -1.02 0.34 0 0 Z " fill="#26C0F8" transform="translate(541,210)"/>
<path d="M0 0 C0.99 0.495 0.99 0.495 2 1 C3.19811544 5.57462259 2.83154187 9.38032292 2 14 C1.360625 13.835 0.72125 13.67 0.0625 13.5 C-8.40712587 12.11720394 -13.51308536 13.13258207 -20.75 17.75 C-22.40425627 18.75634616 -24.05923276 19.76150914 -25.71484375 20.765625 C-26.57190918 21.29349609 -27.42897461 21.82136719 -28.31201172 22.36523438 C-32.924873 25.17065845 -37.6204596 27.82990742 -42.3125 30.5 C-43.18938477 31.00370117 -44.06626953 31.50740234 -44.96972656 32.02636719 C-57.90643644 39.43525454 -57.90643644 39.43525454 -64 39 C-64.33 37.02 -64.66 35.04 -65 33 C-61.375 30 -61.375 30 -58 30 C-58 33 -58 33 -59.5 34.6875 C-59.995 35.120625 -60.49 35.55375 -61 36 C-39.95820506 28.4234229 -39.95820506 28.4234229 -24 15 C-24.66 15 -25.32 15 -26 15 C-25.91015625 13.23046875 -25.91015625 13.23046875 -25 11 C-22.80010986 9.55828095 -20.79502126 8.42464688 -18.4375 7.3125 C-17.80505371 7.0043335 -17.17260742 6.69616699 -16.52099609 6.37866211 C-11.9129176 4.21851474 -8.0585133 3.10117027 -3 3 C-3 2.34 -3 1.68 -3 1 C-2.01 0.67 -1.02 0.34 0 0 Z " fill="#82CFFB" transform="translate(484,248)"/>
<path d="M0 0 C3 1.4375 3 1.4375 5 4 C6.51849534 8.73518962 6.51479319 11.95134721 4.3125 16.4375 C1.06938537 20.03122161 -0.59446007 20.73480379 -5.3125 21.625 C-10.11768628 20.81056165 -11.73583031 18.91574127 -14.66796875 15.15625 C-16 13 -16 13 -16.75 9.875 C-15.69842328 5.8439559 -13.91026222 3.97955418 -11 1 C-7.52317909 -0.73841045 -3.80116675 -0.44642373 0 0 Z " fill="#0FC3FC" transform="translate(595,381)"/>
<path d="M0 0 C3.342356 0.0587315 5.60891136 0.38682585 8.375 2.3125 C11.25186481 5.92702245 11.52813898 7.73461563 11.20703125 12.22265625 C10.51081887 16.02080499 9.09427307 18.33059231 6.125 20.75 C2.57126338 21.71046936 -0.69333972 21.35253294 -4.1875 20.375 C-6.94851146 18.55390734 -8.70850548 17.33298903 -10.1875 14.375 C-10.69448467 9.22065588 -10.69448467 9.22065588 -10.1875 6.375 C-7.75 3.4375 -7.75 3.4375 -5.1875 1.375 C-3.63766739 -0.17483261 -2.15081622 0.09367039 0 0 Z " fill="#10C0FC" transform="translate(136.1875,522.625)"/>
<path d="M0 0 C1.04800781 -0.05607422 1.04800781 -0.05607422 2.1171875 -0.11328125 C5.67114592 -0.17363149 7.60144706 0.05080882 10.38671875 2.31640625 C10.96365479 2.99848145 10.96365479 2.99848145 11.55224609 3.69433594 C13.43549334 5.88055415 15.52821228 7.7772617 17.64453125 9.73828125 C19.36768997 11.38749599 21.0903326 13.03725011 22.8125 14.6875 C23.69615234 15.50412109 24.57980469 16.32074219 25.49023438 17.16210938 C31.71811263 23.19762074 31.71811263 23.19762074 32.57177734 26.76318359 C32.57421875 28.98046875 32.57421875 28.98046875 32 32.375 C31.34 32.045 30.68 31.715 30 31.375 C29.375 28.3125 29.375 28.3125 29 25.375 C28.01 25.189375 27.02 25.00375 26 24.8125 C22.7450882 23.89263362 21.01084976 22.61965621 18.625 20.25 C10.38394851 12.55620584 -2.16473345 7.93073855 -13 5.375 C-13 4.055 -13 2.735 -13 1.375 C-8.68125708 0.34592454 -4.42147864 0.08973481 0 0 Z " fill="#053FAC" transform="translate(530,210.625)"/>
<path d="M0 0 C2.87763758 1.60180998 5.02492701 3.35688762 7 6 C7.86669332 10.4122569 7.34443468 12.34803435 5.25 16.3125 C2.23905711 19.90890401 0.64215047 20.7554244 -3.9375 21.4375 C-8.02249623 20.85392911 -9.37463294 19.07542999 -12 16 C-12.33 15.67 -12.66 15.34 -13 15 C-13.63875068 11.15941049 -13.86586712 7.52763699 -11.90625 4.0703125 C-8.33422909 0.09928925 -5.40040399 -1.13692716 0 0 Z " fill="#16C3FC" transform="translate(193,168)"/>
<path d="M0 0 C1.73534468 0.03974072 3.47019838 0.11110864 5.203125 0.2109375 C6.09128906 0.23800781 6.97945312 0.26507813 7.89453125 0.29296875 C10.08320895 0.36357126 12.26692068 0.46208223 14.453125 0.5859375 C14.453125 1.2459375 14.453125 1.9059375 14.453125 2.5859375 C15.773125 2.9159375 17.093125 3.2459375 18.453125 3.5859375 C17.8240625 3.77027344 17.195 3.95460937 16.546875 4.14453125 C10.11745472 6.32317517 6.65663101 9.03149399 2.40234375 14.26953125 C-0.07245703 17.21052697 -2.84848108 19.61203266 -5.78515625 22.078125 C-7.57677639 23.55835784 -7.57677639 23.55835784 -9.15234375 25.28125 C-10.546875 26.5859375 -10.546875 26.5859375 -12.546875 26.5859375 C-11.98633448 23.37319323 -11.39438763 20.1669941 -10.796875 16.9609375 C-10.63960937 16.05730469 -10.48234375 15.15367187 -10.3203125 14.22265625 C-7.69964308 0.4137443 -7.69964308 0.4137443 0 0 Z " fill="#4CC7FB" transform="translate(596.546875,227.4140625)"/>
<path d="M0 0 C0.66 0.66 1.32 1.32 2 2 C0.65421875 2.98226563 0.65421875 2.98226563 -0.71875 3.984375 C-19.48841465 17.64047729 -19.48841465 17.64047729 -37.66796875 32.0625 C-41.65336956 35.37365377 -45.53538188 38.36702008 -50 41 C-51.34631825 41.98244845 -52.68441297 42.97676564 -54 44 C-54 43.34 -54 42.68 -54 42 C-55.98 42.495 -55.98 42.495 -58 43 C-50.27773457 33.54022485 -41.22117455 26.90844369 -31.0625 20.25 C-29.86193599 19.45697776 -28.66166145 18.66351715 -27.46166992 17.86962891 C-18.34913931 11.84975334 -9.19737292 5.88943202 0 0 Z " fill="#4FDBFA" transform="translate(117,322)"/>
<path d="M0 0 C0.33 0 0.66 0 1 0 C1 1.98 1 3.96 1 6 C1.86625 6.17015625 1.86625 6.17015625 2.75 6.34375 C9.29015055 8.25129391 15.06814027 13.7110668 20.5 17.6875 C21.5209375 18.43386719 22.541875 19.18023437 23.59375 19.94921875 C26 22 26 22 27 25 C22.71 24.34 18.42 23.68 14 23 C14 22.34 14 21.68 14 21 C13.40574219 20.87625 12.81148437 20.7525 12.19921875 20.625 C3.81989786 18.53994348 -2.90408198 14.09591802 -9 8 C-9 7.01 -9 6.02 -9 5 C-6.03 5 -3.06 5 0 5 C0 3.35 0 1.7 0 0 Z " fill="#2ADBF8" transform="translate(612,207)"/>
<path d="M0 0 C0.29599372 8.2056037 -0.56205146 15.92437827 -2 24 C-2.33 23.01 -2.66 22.02 -3 21 C-3.9075 21.495 -4.815 21.99 -5.75 22.5 C-9 24 -9 24 -13 24 C-14.51461343 17.60496553 -14.63437314 10.84501992 -11.3125 5.0625 C-7.83206998 1.95833268 -4.72538893 0 0 0 Z " fill="#889CE7" transform="translate(529,354)"/>
<path d="M0 0 C-1.5131264 3.0262528 -4.32175669 3.62314753 -7.3125 4.875 C-8.35083984 5.31803467 -8.35083984 5.31803467 -9.41015625 5.77001953 C-11.01418208 6.45439025 -12.61924816 7.13632572 -14.22509766 7.81640625 C-17.30750442 9.13116149 -20.37848555 10.47071235 -23.44921875 11.8125 C-34.96781741 16.82917307 -46.52450294 21.73469367 -58.25 26.25 C-59.21873047 26.63269043 -60.18746094 27.01538086 -61.18554688 27.40966797 C-66.72749377 29.4991423 -71.07657404 30.41714267 -77 30 C-73.9380261 27.95868407 -71.15078827 26.80429874 -67.71875 25.48828125 C-66.40461422 24.97964213 -65.09057245 24.47076006 -63.77661133 23.96166992 C-63.08032623 23.69325287 -62.38404114 23.42483582 -61.66665649 23.14828491 C-51.44782288 19.20638319 -41.28123471 15.17808527 -31.23828125 10.8046875 C-30.44537689 10.4599791 -29.65247253 10.11527069 -28.83554077 9.76011658 C-24.98318415 8.08138501 -21.13835161 6.38729664 -17.30078125 4.67504883 C-15.89464946 4.05783609 -14.48840517 3.44087958 -13.08203125 2.82421875 C-12.4521077 2.53735199 -11.82218414 2.25048523 -11.173172 1.95492554 C-7.29494302 0.26779138 -4.21730608 -0.29108471 0 0 Z " fill="#1585E8" transform="translate(427,357)"/>
<path d="M0 0 C0.66 1.32 1.32 2.64 2 4 C-0.22765452 6.39724312 -2.45739721 8.79253447 -4.6875 11.1875 C-5.31333984 11.86103516 -5.93917969 12.53457031 -6.58398438 13.22851562 C-9.99299155 16.88739767 -13.4407701 20.48582364 -17 24 C-18.11135402 25.10999974 -19.22198122 26.22072746 -20.33203125 27.33203125 C-23.5546875 30.5546875 -26.77734375 33.77734375 -30 37 C-30.66 36.34 -31.32 35.68 -32 35 C-30.02 33.02 -28.04 31.04 -26 29 C-26.99 29.66 -27.98 30.32 -29 31 C-31.6875 31.125 -31.6875 31.125 -34 31 C-30.53964511 27.44458042 -26.95635496 24.22604882 -23.125 21.0625 C-15.12801726 14.3936629 -7.36485358 7.36485358 0 0 Z " fill="#0D7DDC" transform="translate(597,281)"/>
<path d="M0 0 C2.99324263 1.0975223 3.84610901 1.67682892 5.25 4.625 C5.4975 5.40875 5.745 6.1925 6 7 C6.66 7 7.32 7 8 7 C8.66 5.35 9.32 3.7 10 2 C19.41002278 1.81548975 19.41002278 1.81548975 24 3 C24 3.33 24 3.66 24 4 C23.16855469 4.01417969 22.33710937 4.02835938 21.48046875 4.04296875 C20.39378906 4.09066406 19.30710937 4.13835937 18.1875 4.1875 C17.10855469 4.22230469 16.02960937 4.25710937 14.91796875 4.29296875 C11.8847888 4.72987137 11.8847888 4.72987137 10.203125 7.06640625 C8.76455043 10.57409943 8.11825347 14.02570725 7.5625 17.75 C6.51804286 24.04693361 4.95886031 29.28633872 2 35 C1.34 35 0.68 35 0 35 C-0.19726647 12.06549645 -0.19726647 12.06549645 0.87890625 3.828125 C1.16119095 1.90125491 1.16119095 1.90125491 0 0 Z " fill="#85E0FB" transform="translate(580,224)"/>
<path d="M0 0 C0.99 2.64 1.98 5.28 3 8 C0.04686917 9.90402815 -2.91343581 11.79662107 -5.875 13.6875 C-6.69742187 14.21794922 -7.51984375 14.74839844 -8.3671875 15.29492188 C-14.07368946 18.92835867 -19.89217059 22.09263412 -26 25 C-26 24.01 -26 23.02 -26 22 C-25.2575 21.566875 -24.515 21.13375 -23.75 20.6875 C-20.8280637 19.1618965 -20.8280637 19.1618965 -19.1875 16.25 C-16.81668389 12.72764464 -14.25927379 10.44839652 -11.02734375 7.74609375 C-9.12294002 6.10588476 -7.4109181 4.38906532 -5.6875 2.5625 C-3 0 -3 0 0 0 Z " fill="#2497E3" transform="translate(512,300)"/>
<path d="M0 0 C0 0.99 0 1.98 0 3 C-1.25135742 3.176521 -2.50271484 3.35304199 -3.79199219 3.53491211 C-8.43650174 4.19065377 -13.08061303 4.84917934 -17.72460938 5.50854492 C-19.73426743 5.79348433 -21.74403256 6.07766958 -23.75390625 6.36108398 C-26.64351456 6.76868437 -29.53272641 7.17899907 -32.421875 7.58984375 C-33.31992859 7.71592514 -34.21798218 7.84200653 -35.14324951 7.97190857 C-35.98381897 8.09195755 -36.82438843 8.21200653 -37.69042969 8.33569336 C-38.79629425 8.49224648 -38.79629425 8.49224648 -39.92449951 8.65196228 C-42.01349481 8.9718223 -42.01349481 8.9718223 -44.08087158 9.53541565 C-46.81962364 10.19841523 -49.43870515 10.09305755 -52.25 10.0625 C-53.32765625 10.05347656 -54.4053125 10.04445312 -55.515625 10.03515625 C-56.33546875 10.02355469 -57.1553125 10.01195312 -58 10 C-52.41221302 4.41221302 -39.1672868 4.29036707 -31.4519043 3.06152344 C-27.53119599 2.4360781 -23.67818777 1.72737944 -19.8125 0.8125 C-13.3198941 -0.56817718 -6.59969462 -0.15839267 0 0 Z " fill="#6CE9FA" transform="translate(526,177)"/>
<path d="M0 0 C0.66 0 1.32 0 2 0 C2.36351562 1.2684375 2.36351562 1.2684375 2.734375 2.5625 C5.72174244 13.63816427 5.72174244 13.63816427 12 23 C12 24.32 12 25.64 12 27 C8.04 27.495 8.04 27.495 4 28 C3.67 28.99 3.34 29.98 3 31 C0.26691775 23.52957517 -0.14482535 16.42140449 -0.0625 8.5625 C-0.05798828 7.73556641 -0.05347656 6.90863281 -0.04882812 6.05664062 C-0.03715811 4.03772854 -0.01922718 2.01885426 0 0 Z " fill="#53F0FC" transform="translate(599,184)"/>
<path d="M0 0 C2.32724184 3.49086277 3.13427859 6.70893324 4.21875 10.72265625 C4.86922513 13.16215534 4.86922513 13.16215534 7 15 C9.78282531 15.83752425 9.78282531 15.83752425 13 15 C16.20351722 12.12337229 19.06751156 8.86497689 21 5 C22.32 5 23.64 5 25 5 C25.33 4.34 25.66 3.68 26 3 C25.68232368 8.40049736 22.80003673 10.52337065 19 14 C21.1385485 16.1385485 22.13275314 16.42655063 25 17 C24.75 18.875 24.75 18.875 24 21 C21.41847698 22.72101535 20.15081975 23 17 23 C17 21.68 17 20.36 17 19 C15.205625 19.12375 15.205625 19.12375 13.375 19.25 C8.88605784 19.25 6.47479736 17.90913267 3 15 C-0.01341184 11.75916086 -0.3438302 9.62724552 -0.1875 5.25 C-0.16042969 4.26515625 -0.13335937 3.2803125 -0.10546875 2.265625 C-0.07066406 1.51796875 -0.03585937 0.7703125 0 0 Z " fill="#6CCFFC" transform="translate(440,290)"/>
<path d="M0 0 C1.62692015 0.08821584 3.25321993 0.18826933 4.87890625 0.296875 C5.76602295 0.3477124 6.65313965 0.3985498 7.56713867 0.45092773 C9.62997939 0.57013841 11.69254498 0.69416204 13.75488281 0.82177734 C18.04290042 1.08360199 22.33182634 1.32609423 26.62109375 1.56640625 C35.22844815 2.04998576 43.83506593 2.54559854 52.44140625 3.046875 C52.93640625 4.036875 52.93640625 4.036875 53.44140625 5.046875 C43.46440822 6.3771414 33.48525801 6.14190417 23.44140625 6.046875 C23.44140625 5.386875 23.44140625 4.726875 23.44140625 4.046875 C21.93513672 4.08167969 21.93513672 4.08167969 20.3984375 4.1171875 C11.53924018 4.25642832 3.17957023 3.72268727 -5.55859375 2.046875 C-3.55859375 0.046875 -3.55859375 0.046875 0 0 Z " fill="#107AD4" transform="translate(89.55859375,484.953125)"/>
<path d="M0 0 C3.85914066 5.78871099 4.26679513 10.19672424 4 17 C-1.17578125 20.22265625 -1.17578125 20.22265625 -3 21 C-3.99 20.67 -4.98 20.34 -6 20 C-6.94921875 17.71484375 -6.94921875 17.71484375 -7.6875 14.9375 C-7.93886719 14.01839844 -8.19023437 13.09929687 -8.44921875 12.15234375 C-8.63097656 11.44207031 -8.81273437 10.73179687 -9 10 C-8.37351562 9.85949219 -7.74703125 9.71898437 -7.1015625 9.57421875 C-4.49367224 8.86165394 -3.63221562 8.15155696 -2 6 C-0.79950593 2.89992799 -0.79950593 2.89992799 0 0 Z " fill="#B3D3F3" transform="translate(519,286)"/>
<path d="M0 0 C0.66 0 1.32 0 2 0 C0.51161541 8.68224345 0.51161541 8.68224345 -2.98364258 11.72924805 C-3.77923584 12.23496338 -4.5748291 12.74067871 -5.39453125 13.26171875 C-6.26787109 13.82310547 -7.14121094 14.38449219 -8.04101562 14.96289062 C-8.95560547 15.53201172 -9.87019531 16.10113281 -10.8125 16.6875 C-11.71548828 17.26822266 -12.61847656 17.84894531 -13.54882812 18.44726562 C-17.62152222 21.03571558 -21.46517794 23.30793225 -26 25 C-25.7216763 21.83852823 -25.00777672 21.00673153 -22.55859375 18.88671875 C-21.52863281 18.16097656 -20.49867188 17.43523437 -19.4375 16.6875 C-14.90164017 13.44393103 -10.66955512 10.05435228 -6.62109375 6.21484375 C-5 5 -5 5 -2 5 C-1.855625 4.360625 -1.71125 3.72125 -1.5625 3.0625 C-1 1 -1 1 0 0 Z " fill="#1562D2" transform="translate(549,303)"/>
<path d="M0 0 C0.99 0.33 1.98 0.66 3 1 C3.33 1.99 3.66 2.98 4 4 C3.34 4 2.68 4 2 4 C2 4.66 2 5.32 2 6 C0.04394531 7.46459961 0.04394531 7.46459961 -2.671875 9.15234375 C-3.64640625 9.76400391 -4.6209375 10.37566406 -5.625 11.00585938 C-7.171875 11.96202148 -7.171875 11.96202148 -8.75 12.9375 C-10.76648172 14.19524209 -12.7821385 15.45430795 -14.796875 16.71484375 C-15.69760742 17.27292725 -16.59833984 17.83101074 -17.52636719 18.40600586 C-19.99970471 19.94101676 -19.99970471 19.94101676 -22.13769531 21.70532227 C-24 23 -24 23 -27 23 C-27 22.01 -27 21.02 -27 20 C-24.76028631 18.32550421 -22.55718384 16.84347642 -20.1875 15.375 C-13.06708602 10.81308754 -6.00739876 6.00739876 0 0 Z " fill="#54E3FB" transform="translate(607,322)"/>
<path d="M0 0 C0.66 0.33 1.32 0.66 2 1 C1.34 1.66 0.68 2.32 0 3 C-0.309375 4.0828125 -0.309375 4.0828125 -0.625 5.1875 C-3.48075597 11.02881903 -9.42568212 14.90315673 -15 18 C-16.34631825 18.98244845 -17.68441297 19.97676564 -19 21 C-19 20.34 -19 19.68 -19 19 C-20.32 19.33 -21.64 19.66 -23 20 C-16.31309633 11.808543 -8.93140578 5.64415227 0 0 Z " fill="#36D0FB" transform="translate(82,345)"/>
<path d="M0 0 C0.33 0 0.66 0 1 0 C1.0294985 3.77081636 1.04696364 7.54160231 1.0625 11.3125 C1.07087891 12.36501953 1.07925781 13.41753906 1.08789062 14.50195312 C1.10909421 21.39311686 0.75671682 28.15030513 0 35 C-0.99 35 -1.98 35 -3 35 C-3.08751499 30.47928979 -3.1405661 25.9587993 -3.1875 21.4375 C-3.21263672 20.16068359 -3.23777344 18.88386719 -3.26367188 17.56835938 C-3.31517191 10.95918846 -3.32400207 5.8017359 0 0 Z " fill="#BEC7E5" transform="translate(181,322)"/>
<path d="M0 0 C0.33 0.66 0.66 1.32 1 2 C12.22 2 23.44 2 35 2 C31.73539181 5.26460819 30.91583086 5.34600078 26.52757263 5.36553955 C25.8056221 5.35319275 25.08367157 5.34084595 24.33984375 5.328125 C23.22132774 5.32531525 23.22132774 5.32531525 22.08021545 5.32244873 C20.50582398 5.31573258 18.93144907 5.30182661 17.35717773 5.28125 C14.94303947 5.25007154 12.5295541 5.24027618 10.11523438 5.234375 C8.58592951 5.22520568 7.05663131 5.21483013 5.52734375 5.203125 C4.80336899 5.19887512 4.07939423 5.19462524 3.33348083 5.19024658 C-1.76555328 5.11722336 -1.76555328 5.11722336 -4 4 C-4 3.34 -4 2.68 -4 2 C-2.68 2 -1.36 2 0 2 C0 1.34 0 0.68 0 0 Z " fill="#2C98E4" transform="translate(102,457)"/>
<path d="M0 0 C8.13815304 2.30643508 16.05682118 5.10428784 24 8 C23.67 8.66 23.34 9.32 23 10 C15.12061726 10.6677443 7.84374092 9.124576 1 5 C0.125 2.32421875 0.125 2.32421875 0 0 Z " fill="#BAC2EC" transform="translate(281,498)"/>
<path d="M0 0 C-1.41316888 3.20887639 -3.10884578 5.35522437 -5.58984375 7.8203125 C-6.29173828 8.52027344 -6.99363281 9.22023438 -7.71679688 9.94140625 C-8.44962891 10.66199219 -9.18246094 11.38257813 -9.9375 12.125 C-10.66646484 12.85332031 -11.39542969 13.58164062 -12.14648438 14.33203125 C-15.01375784 17.17565168 -17.63005808 19.75337205 -21 22 C-23.1875 21.625 -23.1875 21.625 -25 21 C-24.01 21 -23.02 21 -22 21 C-21.7525 20.26394531 -21.505 19.52789062 -21.25 18.76953125 C-19.88105415 15.73646059 -18.37126415 14.00209791 -16 11.6875 C-15.29875 10.99011719 -14.5975 10.29273438 -13.875 9.57421875 C-12 8 -12 8 -10 8 C-10 7.34 -10 6.68 -10 6 C-8.57421875 4.4921875 -8.57421875 4.4921875 -6.6875 2.875 C-6.07261719 2.33617187 -5.45773438 1.79734375 -4.82421875 1.2421875 C-3 0 -3 0 0 0 Z " fill="#AFDFF4" transform="translate(72,360)"/>
<path d="M0 0 C-1.64509903 5.60829213 -3.32385812 10.40482265 -7 15 C-10.62326739 16.2077558 -11.64146369 15.54311128 -15 14 C-5.29949239 0 -5.29949239 0 0 0 Z " fill="#7FC1F5" transform="translate(237,238)"/>
<path d="M0 0 C4.63605723 4.63605723 4.36545739 12.76016298 4.625 19 C4.66367188 19.77472656 4.70234375 20.54945313 4.7421875 21.34765625 C4.83521357 23.23143415 4.91863175 25.11568256 5 27 C4.01 27 3.02 27 2 27 C-0.51761599 17.51271263 -1.34726969 9.77176327 0 0 Z " fill="#C3D0F1" transform="translate(181,361)"/>
<path d="M0 0 C0 0.33 0 0.66 0 1 C-0.84304688 1.23460937 -1.68609375 1.46921875 -2.5546875 1.7109375 C-7.19264081 3.44622615 -10.91398167 6.0946561 -14.96484375 8.8984375 C-18.36459889 11.17975467 -19.78357196 12 -24 12 C-22.23062627 7.22269094 -18.50310723 4.30327071 -14.109375 2.015625 C-9.27098393 -0.00354608 -5.21315961 -0.27927641 0 0 Z " fill="#25AEFA" transform="translate(623,230)"/>
<path d="M0 0 C0 0.99 0 1.98 0 3 C-8.38909618 4.2527717 -16.49737031 5.36011137 -25 5 C-25 4.01 -25 3.02 -25 2 C-16.59628191 -0.21462689 -8.6274658 -0.20705918 0 0 Z " fill="#4DE3FA" transform="translate(526,177)"/>
<path d="M0 0 C0.66 1.32 1.32 2.64 2 4 C0.35648545 6.00303335 -1.31050372 7.97385062 -3 9.9375 C-3.68642578 10.78344727 -3.68642578 10.78344727 -4.38671875 11.64648438 C-7.18472119 14.84693922 -9.08118274 16.34217909 -13.375 16.87890625 C-14.57125 16.91886719 -15.7675 16.95882813 -17 17 C-13.63553776 12.68928276 -10.03040929 9.15931397 -5.87109375 5.61328125 C-3.81073837 3.83681618 -1.88376398 1.96225415 0 0 Z " fill="#168BDB" transform="translate(597,281)"/>
<path d="M0 0 C0.66 0 1.32 0 2 0 C2.98459071 2.3937297 3.96278703 4.7897507 4.9375 7.1875 C5.21529297 7.86103516 5.49308594 8.53457031 5.77929688 9.22851562 C7.22621056 12.80221811 8.41163129 16.16443184 9 20 C8.34 20 7.68 20 7 20 C6.67 20.66 6.34 21.32 6 22 C5.18247697 20.41925436 4.37118003 18.83528777 3.5625 17.25 C3.11003906 16.36828125 2.65757812 15.4865625 2.19140625 14.578125 C-0.12258027 9.5708099 -0.09077518 5.44651064 0 0 Z " fill="#D2DCF5" transform="translate(186,390)"/>
<path d="M0 0 C1.98 0 3.96 0 6 0 C6 0.66 6 1.32 6 2 C6.66 2 7.32 2 8 2 C8.36075949 6.44936709 8.36075949 6.44936709 6.8125 8.8125 C4.36655047 10.41501866 2.86618213 10.4409511 0 10 C-2.1519437 6.77208445 -2.20086443 5.71599191 -2 2 C-1.34 2 -0.68 2 0 2 C0 1.34 0 0.68 0 0 Z " fill="#35D2FC" transform="translate(621,355)"/>
<path d="M0 0 C5.34521615 1.50334204 9.13508016 5.17120091 13 9 C13.33 9.66 13.66 10.32 14 11 C15.89533342 11.46523063 15.89533342 11.46523063 18.0625 11.625 C19.361875 11.74875 20.66125 11.8725 22 12 C22.33 13.32 22.66 14.64 23 16 C22.34 16.33 21.68 16.66 21 17 C18.64666374 15.84570198 16.43742146 14.64399198 14.1875 13.3125 C13.57068359 12.95994141 12.95386719 12.60738281 12.31835938 12.24414062 C1.88878033 6.1814629 1.88878033 6.1814629 0 0 Z " fill="#24A4EC" transform="translate(43,463)"/>
<path d="M0 0 C1.22759033 0.06900513 1.22759033 0.06900513 2.47998047 0.1394043 C3.38490234 0.18645508 4.28982422 0.23350586 5.22216797 0.28198242 C6.64529297 0.37189453 6.64529297 0.37189453 8.09716797 0.46362305 C9.02271484 0.51196289 9.94826172 0.56030273 10.90185547 0.61010742 C16.29763621 0.91114321 21.61882929 1.41425172 26.97216797 2.15112305 C24.51533107 4.60795994 23.12268349 4.4084814 19.76513672 4.4284668 C18.72292969 4.41493164 18.72292969 4.41493164 17.65966797 4.40112305 C16.95068359 4.39725586 16.24169922 4.39338867 15.51123047 4.3894043 C8.89354327 4.28285835 2.47044011 3.39736702 -4.02783203 2.15112305 C-2.02783203 0.15112305 -2.02783203 0.15112305 0 0 Z " fill="#1285D8" transform="translate(88.02783203125,484.848876953125)"/>
<path d="M0 0 C0.99 0 1.98 0 3 0 C4.03290841 1.93108963 5.05098672 3.870118 6.0625 5.8125 C6.63097656 6.89144531 7.19945312 7.97039062 7.78515625 9.08203125 C9 12 9 12 8 15 C6.17578125 14.80078125 6.17578125 14.80078125 4 14 C2.48046875 11.85546875 2.48046875 11.85546875 1.1875 9.1875 C0.74792969 8.31480469 0.30835938 7.44210937 -0.14453125 6.54296875 C-1.06404749 3.80961224 -1.0076835 2.65212405 0 0 Z " fill="#BAC9EF" transform="translate(193,410)"/>
<path d="M0 0 C0.66 0.66 1.32 1.32 2 2 C1.625 5.625 1.625 5.625 1 9 C-1.875 9.1875 -1.875 9.1875 -5 9 C-7.1519437 5.77208445 -7.20086443 4.71599191 -7 1 C-4.48718205 -0.25640898 -2.78302919 -0.20872719 0 0 Z " fill="#35D6FB" transform="translate(131,273)"/>
<path d="M0 0 C-5.0890579 1.71280242 -10.17940363 3.42169983 -15.27099609 5.12695312 C-17.00378013 5.70790528 -18.73620403 6.28993274 -20.46826172 6.87304688 C-22.95446929 7.70984713 -25.44193615 8.54280229 -27.9296875 9.375 C-28.70682098 9.63748535 -29.48395447 9.8999707 -30.28463745 10.17041016 C-35.77225659 12 -35.77225659 12 -38 12 C-38 11.34 -38 10.68 -38 10 C-38.66 9.67 -39.32 9.34 -40 9 C-38.48986328 8.67128906 -38.48986328 8.67128906 -36.94921875 8.3359375 C-27.86953028 6.30427942 -19.04473286 3.88649082 -10.24682617 0.84326172 C-9.1095105 0.46258545 -9.1095105 0.46258545 -7.94921875 0.07421875 C-7.28237061 -0.15692627 -6.61552246 -0.38807129 -5.9284668 -0.6262207 C-3.65850053 -1.06619011 -2.17981125 -0.7051527 0 0 Z " fill="#1E50A3" transform="translate(265,437)"/>
<path d="M0 0 C1.32 0 2.64 0 4 0 C4.05389087 1.95803507 4.09274217 3.91648909 4.125 5.875 C4.14820313 6.96554687 4.17140625 8.05609375 4.1953125 9.1796875 C4 12 4 12 2 14 C1.67 11.69 1.34 9.38 1 7 C0.236875 7.680625 -0.52625 8.36125 -1.3125 9.0625 C-2.199375 9.701875 -3.08625 10.34125 -4 11 C-4.99 10.67 -5.98 10.34 -7 10 C-5.93356893 8.32246798 -4.84625276 6.65819745 -3.75 5 C-3.14671875 4.071875 -2.5434375 3.14375 -1.921875 2.1875 C-1.28765625 1.465625 -0.6534375 0.74375 0 0 Z " fill="#0350BD" transform="translate(561,275)"/>
<path d="M0 0 C1.98073365 0.280828 3.95958448 0.57496614 5.9375 0.875 C7.59072266 1.11863281 7.59072266 1.11863281 9.27734375 1.3671875 C10.17582031 1.57601563 11.07429688 1.78484375 12 2 C12.33 2.66 12.66 3.32 13 4 C15.16072227 4.78623891 17.35490875 5.48201226 19.5625 6.125 C20.76003906 6.47820312 21.95757812 6.83140625 23.19140625 7.1953125 C24.11824219 7.46085937 25.04507812 7.72640625 26 8 C26 8.33 26 8.66 26 9 C19.66801102 8.83611323 13.92929409 7.56880702 7.9375 5.625 C7.27032959 5.41593018 6.60315918 5.20686035 5.91577148 4.99145508 C4.02734375 4.3515625 4.02734375 4.3515625 1 3 C0.67 2.01 0.34 1.02 0 0 Z " fill="#1C7CEA" transform="translate(285,388)"/>
<path d="M0 0 C2.64 0 5.28 0 8 0 C8 0.66 8 1.32 8 2 C10.97 2.495 10.97 2.495 14 3 C14 4.32 14 5.64 14 7 C8.29290936 6.53411505 4.84060277 5.06242216 0 2 C0 1.34 0 0.68 0 0 Z " fill="#C8CEEF" transform="translate(263,491)"/>
<path d="M0 0 C3.3 0 6.6 0 10 0 C6.2075342 4.26652402 2.32766024 6.89480975 -3 9 C-3.66 9 -4.32 9 -5 9 C-5 7.68 -5 6.36 -5 5 C-3.68 5 -2.36 5 -1 5 C-0.67 3.35 -0.34 1.7 0 0 Z " fill="#1A87DE" transform="translate(470,329)"/>
<path d="M0 0 C9.41002278 -0.18451025 9.41002278 -0.18451025 14 1 C14 1.33 14 1.66 14 2 C12.78763672 1.95166016 12.78763672 1.95166016 11.55078125 1.90234375 C8.16004752 1.93915509 5.27722362 2.10504947 2 3 C-0.4962459 5.70554259 -1.79858555 8.54244096 -3 12 C-3.66 12 -4.32 12 -5 12 C-5 9.03 -5 6.06 -5 3 C-4.67 3.66 -4.34 4.32 -4 5 C-3.34 5 -2.68 5 -2 5 C-1.34 3.35 -0.68 1.7 0 0 Z " fill="#9DE7FA" transform="translate(590,226)"/>
<path d="M0 0 C0.33 0 0.66 0 1 0 C1.66 3.63 2.32 7.26 3 11 C2.34 11 1.68 11 1 11 C1 15.62 1 20.24 1 25 C0.67 25 0.34 25 0 25 C-0.33 21.37 -0.66 17.74 -1 14 C-1.66 15.32 -2.32 16.64 -3 18 C-2.22095672 5.33029613 -2.22095672 5.33029613 0 0 Z " fill="#B0C5ED" transform="translate(182,309)"/>
<path d="M0 0 C0.99 0 1.98 0 3 0 C3.33 1.65 3.66 3.3 4 5 C1.65830442 6.43103619 -0.64026579 7.83071331 -3.125 9 C-5.14584143 10.07778209 -6.46658829 11.31324712 -8 13 C-8.99 12.67 -9.98 12.34 -11 12 C-10.37351562 11.38511719 -9.74703125 10.77023438 -9.1015625 10.13671875 C-8.28429687 9.32847656 -7.46703125 8.52023438 -6.625 7.6875 C-5.40683594 6.48673828 -5.40683594 6.48673828 -4.1640625 5.26171875 C-1.87395158 2.99990063 -1.87395158 2.99990063 0 0 Z " fill="#5AF1FA" transform="translate(601,167)"/>
<path d="M0 0 C2.31 0 4.62 0 7 0 C7.04241723 2.33294775 7.04092937 4.66702567 7 7 C6 8 6 8 3.4375 8.0625 C2.633125 8.041875 1.82875 8.02125 1 8 C-0.35439668 5.29120665 -0.06501451 2.99066732 0 0 Z " fill="#24CCFC" transform="translate(100,534)"/>
<path d="M0 0 C2.375 -0.125 2.375 -0.125 5 0 C7 2 7 2 7.125 5.125 C7.08375 6.07375 7.0425 7.0225 7 8 C4.69 8 2.38 8 0 8 C0 5.36 0 2.72 0 0 Z " fill="#25D4FC" transform="translate(214,520)"/>
<path d="M0 0 C-3.75 3 -3.75 3 -6 3 C-6 3.99 -6 4.98 -6 6 C-9.96 5.67 -13.92 5.34 -18 5 C-18.33 5.66 -18.66 6.32 -19 7 C-19 6.01 -19 5.02 -19 4 C-12.44995746 1.30292366 -7.11513755 -0.53699151 0 0 Z " fill="#96A3DF" transform="translate(281,486)"/>
<path d="M0 0 C0 0.99 0 1.98 0 3 C-2.625 4.82421875 -2.625 4.82421875 -6 6.6875 C-7.11375 7.31011719 -8.2275 7.93273437 -9.375 8.57421875 C-10.24125 9.04472656 -11.1075 9.51523437 -12 10 C-12.33 9.01 -12.66 8.02 -13 7 C-11.59310148 5.82157218 -10.17406375 4.65762602 -8.75 3.5 C-7.96109375 2.8503125 -7.1721875 2.200625 -6.359375 1.53125 C-4 0 -4 0 0 0 Z " fill="#2777DB" transform="translate(536,318)"/>
<path d="M0 0 C2 2 2 2 2.1953125 4.6015625 C2.17210938 5.59929687 2.14890625 6.59703125 2.125 7.625 C2.10695313 8.62789063 2.08890625 9.63078125 2.0703125 10.6640625 C2.03550781 11.82035156 2.03550781 11.82035156 2 13 C1.01 12.67 0.02 12.34 -1 12 C-1 10.68 -1 9.36 -1 8 C-2.32 8.33 -3.64 8.66 -5 9 C-4.3566152 7.686298 -3.71021785 6.37407102 -3.0625 5.0625 C-2.70285156 4.33160156 -2.34320313 3.60070312 -1.97265625 2.84765625 C-1 1 -1 1 0 0 Z " fill="#096CCA" transform="translate(78,399)"/>
<path d="M0 0 C8.415 1.98 8.415 1.98 17 4 C17 4.66 17 5.32 17 6 C10.07 5.505 10.07 5.505 3 5 C3 4.01 3 3.02 3 2 C2.01 2 1.02 2 0 2 C0 1.34 0 0.68 0 0 Z " fill="#73D5F9" transform="translate(563,218)"/>
<path d="M0 0 C0.66 0 1.32 0 2 0 C0.43181728 5.452999 -1.03810217 9.76486783 -5 14 C-5 12.35 -5 10.7 -5 9 C-5.66 8.67 -6.32 8.34 -7 8 C-5.88200014 6.66079162 -4.75538103 5.32877444 -3.625 4 C-2.68527344 2.88625 -2.68527344 2.88625 -1.7265625 1.75 C-1.15679687 1.1725 -0.58703125 0.595 0 0 Z " fill="#9AC9F5" transform="translate(235,238)"/>
<path d="M0 0 C-0.66 1.65 -1.32 3.3 -2 5 C-5.96 5 -9.92 5 -14 5 C-14.33 4.34 -14.66 3.68 -15 3 C-13.0636296 2.49564306 -11.12585854 1.99666126 -9.1875 1.5 C-8.10855469 1.2215625 -7.02960937 0.943125 -5.91796875 0.65625 C-3 0 -3 0 0 0 Z " fill="#16BCE3" transform="translate(560,206)"/>
<path d="M0 0 C0.33 0.99 0.66 1.98 1 3 C0.01 4.485 0.01 4.485 -1 6 C-1.99 6 -2.98 6 -4 6 C-4.33 6.99 -4.66 7.98 -5 9 C-5 8.34 -5 7.68 -5 7 C-11.27 7 -17.54 7 -24 7 C-24 6.67 -24 6.34 -24 6 C-22.37191406 5.94392578 -22.37191406 5.94392578 -20.7109375 5.88671875 C-19.26559261 5.82102125 -17.82028161 5.75457524 -16.375 5.6875 C-15.66214844 5.66494141 -14.94929687 5.64238281 -14.21484375 5.61914062 C-8.54413243 5.33300382 -4.14797826 4.14797826 0 0 Z " fill="#5AB6DB" transform="translate(581,190)"/>
<path d="M0 0 C1.5843317 0.08768248 3.16753567 0.19587329 4.75 0.3125 C6.07257813 0.39951172 6.07257813 0.39951172 7.421875 0.48828125 C10.32303774 1.0641181 11.79225607 2.07596148 14 4 C10.02840314 5.08056059 7.57446843 4.85815614 3.6875 3.5625 C2.36298828 3.13130859 2.36298828 3.13130859 1.01171875 2.69140625 C0.34785156 2.46324219 -0.31601562 2.23507812 -1 2 C-0.67 1.34 -0.34 0.68 0 0 Z " fill="#99A3D9" transform="translate(306,509)"/>
<path d="M0 0 C0.66 0 1.32 0 2 0 C1.39009109 3.55780196 0.4216319 6.6828589 -1 10 C-2.65 10 -4.3 10 -6 10 C-5.67 8.35 -5.34 6.7 -5 5 C-4.01 5 -3.02 5 -2 5 C-1.855625 4.360625 -1.71125 3.72125 -1.5625 3.0625 C-1 1 -1 1 0 0 Z " fill="#0A4FCA" transform="translate(549,303)"/>
<path d="M0 0 C2.9375 0.75 2.9375 0.75 6 2 C6.875 4.125 6.875 4.125 7 6 C9.64 5.67 12.28 5.34 15 5 C13.3125 6.5625 13.3125 6.5625 11 8 C8.5625 7.8125 8.5625 7.8125 6 7 C5.0925 6.7525 4.185 6.505 3.25 6.25 C1 5 1 5 0.1875 2.375 C0.125625 1.59125 0.06375 0.8075 0 0 Z " fill="#0D2FA4" transform="translate(270,474)"/>
<path d="M0 0 C5.75 0.875 5.75 0.875 8 2 C8 2.66 8 3.32 8 4 C3.05 4 -1.9 4 -7 4 C-7 3.34 -7 2.68 -7 2 C-4.69 2 -2.38 2 0 2 C0 1.34 0 0.68 0 0 Z " fill="#A2E9FB" transform="translate(618,226)"/>
<path d="M0 0 C0.33 0 0.66 0 1 0 C1.1799928 5.21979128 0.97094808 9.07262981 -1 14 C-1.99 14 -2.98 14 -4 14 C-3.46148032 8.72250715 -2.22656164 4.74354436 0 0 Z " fill="#CBD3F3" transform="translate(521,390)"/>
<path d="M0 0 C0.99 0 1.98 0 3 0 C3.02696365 1.79158489 3.04637917 3.58328473 3.0625 5.375 C3.07410156 6.37273437 3.08570313 7.37046875 3.09765625 8.3984375 C3 11 3 11 2 13 C1.34 13 0.68 13 0 13 C-0.19658808 11.58456585 -0.38187546 10.16755969 -0.5625 8.75 C-0.66691406 7.96109375 -0.77132812 7.1721875 -0.87890625 6.359375 C-1.00027349 3.99467126 -0.69633257 2.2488963 0 0 Z " fill="#8090D5" transform="translate(526,354)"/>
<path d="M0 0 C0.9384375 -0.01675781 1.876875 -0.03351563 2.84375 -0.05078125 C5.5 0.3125 5.5 0.3125 9.5 3.3125 C3.23 2.9825 -3.04 2.6525 -9.5 2.3125 C-5.65067162 0.38783581 -4.12643585 0.01700454 0 0 Z " fill="#15AEF3" transform="translate(628.5,229.6875)"/>
<path d="M0 0 C7.42857143 -0.28571429 7.42857143 -0.28571429 11 2 C10.195625 2.12375 9.39125 2.2475 8.5625 2.375 C7.2940625 2.684375 7.2940625 2.684375 6 3 C5.67 3.66 5.34 4.32 5 5 C3.02 4.34 1.04 3.68 -1 3 C-0.67 2.01 -0.34 1.02 0 0 Z " fill="#1CE0F7" transform="translate(543,210)"/>
<path d="M0 0 C0.66 0 1.32 0 2 0 C3.98362069 2.91708924 3.9876191 4.12380904 3.625 7.75 C3.41875 8.8225 3.2125 9.895 3 11 C2.34 11 1.68 11 1 11 C-0.28317892 7.15046324 -0.06643637 4.05261865 0 0 Z " fill="#DFE5F6" transform="translate(186,390)"/>
<path d="M0 0 C0.66 0 1.32 0 2 0 C1.48964169 4.3890815 0.47785723 7.33708062 -2 11 C-2.66 10.67 -3.32 10.34 -4 10 C-3.52449439 8.51965236 -3.04448784 7.04074979 -2.5625 5.5625 C-2.29566406 4.73878906 -2.02882812 3.91507812 -1.75390625 3.06640625 C-1 1 -1 1 0 0 Z " fill="#17297E" transform="translate(172,279)"/>
<path d="M0 0 C0.66 1.32 1.32 2.64 2 4 C0.90716423 5.03295436 -0.19970579 6.05107835 -1.3125 7.0625 C-1.92738281 7.63097656 -2.54226563 8.19945312 -3.17578125 8.78515625 C-3.77777344 9.18605469 -4.37976563 9.58695312 -5 10 C-5.99 9.67 -6.98 9.34 -8 9 C-7.195625 8.236875 -6.39125 7.47375 -5.5625 6.6875 C-2.83200976 4.20569102 -2.83200976 4.20569102 -2 1 C-1.34 0.67 -0.68 0.34 0 0 Z " fill="#5FBFF5" transform="translate(502,276)"/>
<path d="M0 0 C0.66 0.33 1.32 0.66 2 1 C2 1.66 2 2.32 2 3 C3.65 3.33 5.3 3.66 7 4 C6.67 4.99 6.34 5.98 6 7 C5.01 7.33 4.02 7.66 3 8 C-0.1875 5.6875 -0.1875 5.6875 -3 3 C-3 2.34 -3 1.68 -3 1 C-2.01 0.67 -1.02 0.34 0 0 Z " fill="#20C6F1" transform="translate(541,210)"/>
<path d="M0 0 C0.99 0.33 1.98 0.66 3 1 C1.75686537 4.72940389 0.23014784 5.84656811 -3 8 C-3.99 7.67 -4.98 7.34 -6 7 C-2.25 1.125 -2.25 1.125 0 0 Z " fill="#0769D3" transform="translate(560,278)"/>
<path d="M0 0 C3.3 0.33 6.6 0.66 10 1 C10.33 2.32 10.66 3.64 11 5 C10.01 5.495 10.01 5.495 9 6 C6.8359375 5.00390625 6.8359375 5.00390625 4.375 3.5625 C3.55773438 3.08941406 2.74046875 2.61632812 1.8984375 2.12890625 C1.27195313 1.75636719 0.64546875 1.38382812 0 1 C0 0.67 0 0.34 0 0 Z " fill="#25BEF0" transform="translate(55,474)"/>
<path d="M0 0 C2.64 0.66 5.28 1.32 8 2 C7.01 2.495 7.01 2.495 6 3 C6.33 4.32 6.66 5.64 7 7 C5.02 6.34 3.04 5.68 1 5 C0.67 3.35 0.34 1.7 0 0 Z " fill="#B7BFE9" transform="translate(281,498)"/>
<path d="M0 0 C-0.33 0.99 -0.66 1.98 -1 3 C-4.47325181 4.1577506 -7.36067448 4.06866652 -11 4 C-3.77464789 -1.88732394 -3.77464789 -1.88732394 0 0 Z " fill="#34468D" transform="translate(279,172)"/>
<path d="M0 0 C0.66 1.32 1.32 2.64 2 4 C0.75 5.5 0.75 5.5 -1 7 C-2.32 7 -3.64 7 -5 7 C-3.70700306 4.11562221 -2.34058637 2.12780579 0 0 Z " fill="#298ADA" transform="translate(597,281)"/>
<path d="M0 0 C1.9375 0.8125 1.9375 0.8125 4 2 C4.33 2.99 4.66 3.98 5 5 C3.625 6.5 3.625 6.5 2 8 C1.34 8 0.68 8 0 8 C0 5.36 0 2.72 0 0 Z " fill="#0B72D0" transform="translate(573,271)"/>
<path d="M0 0 C3.3 0.33 6.6 0.66 10 1 C10 1.99 10 2.98 10 4 C2.25 3.125 2.25 3.125 0 2 C0 1.34 0 0.68 0 0 Z " fill="#AFF3FA" transform="translate(549,213)"/>
<path d="M0 0 C0.99 0.33 1.98 0.66 3 1 C3 2.65 3 4.3 3 6 C1.02 5.34 -0.96 4.68 -3 4 C-3 3.34 -3 2.68 -3 2 C-2.01 1.34 -1.02 0.68 0 0 Z " fill="#4FE8FA" transform="translate(531,160)"/>
<path d="M0 0 C0.33 1.32 0.66 2.64 1 4 C-4.75 2.25 -4.75 2.25 -7 0 C-3.86650268 -1.04449911 -3.01031744 -0.93423645 0 0 Z " fill="#AEB4E1" transform="translate(281,498)"/>
<path d="M0 0 C0.6875 1.75 0.6875 1.75 1 4 C-0.25 6.25 -0.25 6.25 -2 8 C-2.99 8 -3.98 8 -5 8 C-3.62845496 5.04590299 -2.01136276 2.55991624 0 0 Z " fill="#3461B4" transform="translate(604,273)"/>
<path d="M0 0 C4.95 0.99 4.95 0.99 10 2 C10 2.66 10 3.32 10 4 C6.05272412 4.17942163 3.4019487 4.09350689 0 2 C0 1.34 0 0.68 0 0 Z " fill="#81DCFA" transform="translate(563,218)"/>
<path d="M0 0 C0.66 0.33 1.32 0.66 2 1 C-0.475 5.455 -0.475 5.455 -3 10 C-4.21744727 6.34765818 -3.64202228 5.37046678 -2 2 C-1.34 1.34 -0.68 0.68 0 0 Z " fill="#A8CFF6" transform="translate(234,242)"/>
<path d="M0 0 C2.97 0.495 2.97 0.495 6 1 C6 1.66 6 2.32 6 3 C4.35 3.33 2.7 3.66 1 4 C0.67 2.68 0.34 1.36 0 0 Z " fill="#C6CDF4" transform="translate(287,501)"/>
<path d="M0 0 C1.65 0 3.3 0 5 0 C4.67 1.32 4.34 2.64 4 4 C2.68 4 1.36 4 0 4 C0 2.68 0 1.36 0 0 Z " fill="#7CD4FC" transform="translate(460,307)"/>
<path d="M0 0 C0.33 0 0.66 0 1 0 C1 2.64 1 5.28 1 8 C0.34 8 -0.32 8 -1 8 C-1.33 8.66 -1.66 9.32 -2 10 C-1.125 2.25 -1.125 2.25 0 0 Z " fill="#9FBDF0" transform="translate(182,309)"/>
<path d="M0 0 C0.66 0.33 1.32 0.66 2 1 C0.8125 3.5 0.8125 3.5 -1 6 C-3.6875 6.3125 -3.6875 6.3125 -6 6 C-4 4 -2 2 0 0 Z " fill="#1789DF" transform="translate(569,306)"/>
</svg>
